<svg id="Capa_1" enable-background="new 0 0 512 512" height="512" viewBox="0 0 512 512" width="512" xmlns="http://www.w3.org/2000/svg"><g><path d="m430.918 60.54c-15.424-15.466-37.933-20.971-58.756-14.36l-42.206 13.398c-73.648-18.713-131.234-5.143-148.31-.126l-41.808-13.272c-20.817-6.61-43.333-1.106-58.756 14.36l-81.082 81.309s17.351 56.89 64.572 92.789l-14.492 62.752-.148.722c-4.167 23.164 1.591 47.21 15.797 65.975 12.163 16.065 29.735 27.214 49.239 31.518l8.938 21.824c9.726 23.75 32.593 39.095 58.258 39.095 8.09 0 15.9-1.551 23.112-4.396 15.461 10.648 33.862 16.443 52.81 16.443 18.732 0 36.973-5.681 52.337-16.119 6.98 2.64 14.503 4.072 22.284 4.072 25.664 0 48.532-15.346 58.257-39.095l9.006-21.989c19.202-4.422 36.478-15.495 48.483-31.353 14.207-18.764 19.965-42.811 15.798-65.976l-12.026-66.841c42.703-33.852 59.775-89.421 59.775-89.421zm-279.144 345.476-11.244-27.454 62.542-80.774 35.917 29.929-25.704 76.334c-4.503 13.374-17.01 22.359-31.122 22.359-13.387 0-25.316-8.005-30.389-20.394zm94.839-135.202h21.643c7.759 0 15.353 2.016 22.068 5.666l-32.89 27.406-32.89-27.406c6.715-3.65 14.309-5.666 22.069-5.666zm-15.049 161.782c4.396-5.567 7.904-11.934 10.261-18.934l15.609-46.355 15.609 46.355c2.418 7.18 6.04 13.699 10.595 19.366-7.988 3.542-16.688 5.429-25.555 5.429-9.233-.001-18.274-2.037-26.519-5.861zm131.531-26.579c-5.074 12.388-17.002 20.393-30.389 20.393-14.111 0-26.618-8.985-31.121-22.359l-25.705-76.334 35.917-29.929 62.542 80.774zm70.806-198.572-38.309-42.01c-11.965-13.121-18.554-30.127-18.554-47.885h-30.115c0 25.282 9.382 49.494 26.416 68.176l49.947 54.772 11.325 62.946c2.721 15.129-.89 30.21-10.169 42.466-6.184 8.168-14.265 14.239-23.493 17.829l-72.357-93.449c-7.557-9.76-17.393-17.446-28.435-22.537v-49.558c0-3.142 2.029-4.613 3.239-5.209 1.211-.597 3.612-1.312 6.105.6l26.28 20.156 18.328-23.896-26.28-20.156c-10.933-8.385-25.399-9.807-37.755-3.712s-20.031 18.44-20.031 32.217v42.53c-.595-.014-1.19-.026-1.786-.026h-21.643c-.162 0-.324.006-.487.007v-42.511c0-13.777-7.676-26.122-20.031-32.217-12.356-6.094-26.823-4.673-37.755 3.712l-26.28 20.156 18.328 23.896 26.28-20.156c2.493-1.914 4.895-1.197 6.105-.6s3.239 2.067 3.239 5.209v48.978c-11.568 5.078-21.883 12.976-29.734 23.117l-72.519 93.658c-9.448-3.562-17.718-9.715-24.019-18.039-9.209-12.163-12.835-27.109-10.228-42.123l16.451-71.234 42.7-46.826c17.036-18.682 26.418-42.893 26.418-68.176h-30.115c0 17.758-6.59 34.763-18.555 47.885l-38.308 42.01c-32.346-27.862-37.798-52.53-41.531-59.619l65.837-66.022c7.434-7.454 18.286-10.106 28.319-6.921l51.205 16.23s65.542-22.578 144.518-1.325l4.261 1.147 50.565-16.052c10.037-3.187 20.885-.533 28.319 6.921l65.837 66.022c-3.737 7.089-11.552 31.096-41.533 59.619z"/><path d="m145.018 230.826h30.115v30.117h-30.115z"/><path d="m341.036 230.826h30.115v30.117h-30.115z"/></g></svg>