<?xml version="1.0" standalone="no"?>
<!DOCTYPE svg PUBLIC "-//W3C//DTD SVG 1.1//EN" "http://www.w3.org/Graphics/SVG/1.1/DTD/svg11.dtd" >
<svg>
<metadata>
Created by FontForge 20120731 at Sat Aug 24 02:44:25 2019
 By www
Copyright (c) 2011, Eduardo Tunni (http://www.tipo.net.ar), with Reserved Font Name "Arapey"
</metadata>
<defs>
<font id="Arapey-Italic" horiz-adv-x="505" >
  <font-face 
    font-family="Arapey"
    font-weight="400"
    font-style="italic"
    font-stretch="normal"
    units-per-em="1000"
    panose-1="2 0 0 0 0 0 0 0 0 0"
    ascent="800"
    descent="-200"
    x-height="435"
    cap-height="630"
    bbox="-165 -228 1100 858"
    underline-thickness="50"
    underline-position="-50"
    slope="-12"
    unicode-range="U+0020-FB04"
  />
<missing-glyph horiz-adv-x="250" 
 />
    <glyph glyph-name="fi" unicode="fi" horiz-adv-x="510" 
d="M215.5 585.5q52.5 74.5 131 74.5t111 -31.5t32.5 -73.5q0 -22 -11 -37.5t-34 -15.5t-35 14q16 28 16 56t-20 46.5t-57 18.5q-53 0 -81.5 -43t-45.5 -123l-94 -439q-55 -260 -173 -260q-38 0 -59 23t-21 51.5t11.5 51t36.5 22.5t36 -13q-13 -10 -21.5 -30t-8.5 -39
q0 -43 36 -43q40 0 61.5 64t57.5 247l58 296q21 109 73.5 183.5zM393 396h-341l5 19h252q85 0 148 20l14 -10q-35 -104 -66 -223t-31 -152.5t25 -33.5q19 0 41 25.5t38 72.5l16 -4q-43 -122 -112 -122q-62 0 -62 75q0 51 73 333z" />
    <glyph glyph-name="fl" unicode="fl" horiz-adv-x="536" 
d="M384 49q0 -33 25 -33q19 0 41 25.5t38 72.5l16 -4q-43 -122 -112 -122q-62 0 -62 75q0 43 55 262.5t55 231.5q0 36 -21.5 58t-59.5 22q-102 0 -137 -166l-12 -56h99l-5 -19h-98l-78 -364q-55 -260 -173 -260q-38 0 -59 23t-21 51.5t11.5 51t36.5 22.5t36 -13
q-13 -10 -21.5 -30t-8.5 -39q0 -43 36 -43q40 0 61.5 64t57.5 247l57 290h-89l5 19h87q24 113 78.5 179t138 66t119.5 -52l45 49l14 -10q-42 -123 -98.5 -333.5t-56.5 -264.5z" />
    <glyph glyph-name=".notdef" horiz-adv-x="250" 
 />
    <glyph glyph-name=".null" horiz-adv-x="0" 
 />
    <glyph glyph-name="nonmarkingreturn" horiz-adv-x="333" 
 />
    <glyph glyph-name="space" unicode=" " horiz-adv-x="250" 
 />
    <glyph glyph-name="exclam" unicode="!" horiz-adv-x="260" 
d="M130 170h-24q43 295 59 413q4 27 20.5 43t37.5 16q34 0 34 -37q0 -21 -22 -91.5t-55 -173t-50 -170.5zM45 36q0 20 14.5 34t33.5 14t33.5 -14t14.5 -34t-14.5 -34t-33.5 -14t-33.5 14t-14.5 34z" />
    <glyph glyph-name="quotedbl" unicode="&#x22;" horiz-adv-x="214" 
d="M92 444h-17l7 174q1 24 15.5 37t34.5 13q33 0 33 -35q0 -10 -8.5 -30.5t-15.5 -37.5q-21 -51 -49 -121zM216 444h-17l7 174q1 24 15.5 37t34.5 13q33 0 33 -35q0 -10 -8.5 -30.5t-15.5 -37.5q-21 -51 -49 -121z" />
    <glyph glyph-name="numbersign" unicode="#" horiz-adv-x="463" 
d="M14 -101h-33l225 768h33zM437 233l-10 -31h-475l10 31h475zM219 -101h-33l225 768h33zM486 400l-10 -31h-475l10 31h475z" />
    <glyph glyph-name="dollar" unicode="$" horiz-adv-x="440" 
d="M155 -12q-65 0 -102 29t-37 73q0 30 14 54t38 24t38 -16q-29 -37 -29 -70t23.5 -51.5t59.5 -18.5q60 0 103.5 41.5t43.5 93.5t-57 83l-90 48q-66 34 -66 106.5t55 133.5t145 61q63 0 94 -27t31 -64.5t-13.5 -63t-38.5 -25.5t-38 15q26 43 26 72.5t-17 47t-50 17.5
q-59 0 -94.5 -41.5t-35.5 -92.5t54 -79l92 -48q78 -41 78 -118t-68 -130.5t-159 -53.5zM159 -101h-30l163 768h30z" />
    <glyph glyph-name="percent" unicode="%" horiz-adv-x="879" 
d="M115.5 236.5q-25.5 31.5 -25.5 86t18 110.5t60.5 101t92.5 45t75.5 -31t25.5 -85t-18 -110.5t-60.5 -102t-92.5 -45.5t-75.5 31.5zM262 560q-42 0 -79 -85t-37 -167.5t45 -82.5q28 0 55.5 42t44 100t16.5 103q0 90 -45 90zM542.5 23.5q-25.5 31.5 -25.5 86t18 110.5
t60.5 101t92.5 45t75.5 -31t25.5 -85t-18 -110.5t-60.5 -102t-92.5 -45.5t-75.5 31.5zM689 347q-42 0 -79 -85t-37 -167.5t45 -82.5q28 0 55.5 42t44 100t16.5 103q0 90 -45 90zM330 -74h-31l249 722h32z" />
    <glyph glyph-name="ampersand" unicode="&#x26;" horiz-adv-x="574" 
d="M334 -45q0 28 22 131h-5q-67 -98 -174 -98q-77 0 -117 33.5t-40 85.5q0 67 60.5 129t162.5 83q-116 24 -116 128q0 63 57.5 118t139.5 55q64 0 93.5 -31t29.5 -70.5t-15.5 -65t-40.5 -25.5t-41 16q31 43 31 84q0 62 -63 62q-53 0 -88 -44t-35 -96t33.5 -85.5t93.5 -33.5
t107 33t72 99l15 -11q-3 -12 -35 -121h93l-5 -20h-93q-84 -297 -84 -371q0 -35 27 -35q21 0 44.5 27t39.5 77l18 -4q-47 -130 -120 -130q-67 0 -67 80zM182 14q62 0 120 51.5t85 156.5l23 89h-88q-108 0 -170.5 -68t-62.5 -144q0 -37 24.5 -61t68.5 -24z" />
    <glyph glyph-name="quotesingle" unicode="'" horiz-adv-x="90" 
d="M92 444h-17l7 174q1 24 15.5 37t34.5 13q33 0 33 -35q0 -10 -8.5 -30.5t-15.5 -37.5q-21 -51 -49 -121z" />
    <glyph glyph-name="parenleft" unicode="(" horiz-adv-x="273" 
d="M335 620q-104 -77 -162 -215.5t-58 -286t68 -216.5l-14 -15q-63 39 -95.5 110t-32.5 158q0 143 78.5 279.5t208.5 200.5z" />
    <glyph glyph-name="parenright" unicode=")" horiz-adv-x="273" 
d="M-46 -98q100 76 159 217t59 285.5t-67 215.5l12 15q65 -39 97 -109.5t32 -158.5q0 -143 -78.5 -280t-209.5 -200z" />
    <glyph glyph-name="asterisk" unicode="*" horiz-adv-x="398" 
d="M250 499l-4 100q0 29 13 45t33 16q27 0 27 -28q0 -8 -2 -16.5t-21.5 -49.5t-29.5 -67q23 13 54 32q59 36 73 36t22 -8.5t8 -23t-5.5 -24t-21 -14t-30 -6t-45.5 -3.5t-55 -5q15 -18 37 -39.5t31.5 -33.5t9.5 -26.5t-14 -28.5t-30.5 -14t-23 12t-12.5 53.5t-12 67.5
q-30 -49 -43.5 -73t-22.5 -37q-17 -23 -33.5 -23t-24.5 9t-8 21.5t10 25t23 22t40.5 28.5t48.5 36q-22 3 -47 4.5t-39 2.5t-27 4q-24 4 -24 24t13 34.5t27 14.5t27 -8.5t36 -27.5t42 -32z" />
    <glyph glyph-name="plus" unicode="+" 
d="M332 392l-36 -169h162l-11 -53h-162l-36 -170h-50l36 170h-161l11 53h161l36 169h50z" />
    <glyph glyph-name="comma" unicode="," horiz-adv-x="182" 
d="M5 -111q65 50 65 105q0 30 -21 49q5 23 23.5 40t39.5 17q41 0 41 -41t-40.5 -97.5t-99.5 -86.5z" />
    <glyph glyph-name="hyphen" unicode="-" horiz-adv-x="279" 
d="M30 211l9 40h240l-9 -40h-240z" />
    <glyph glyph-name="period" unicode="." horiz-adv-x="192" 
d="M43 41q0 22 15.5 37.5t37.5 15.5t37.5 -15.5t15.5 -37.5t-15.5 -37.5t-37.5 -15.5t-37.5 15.5t-15.5 37.5z" />
    <glyph glyph-name="slash" unicode="/" horiz-adv-x="319" 
d="M51 -74h-33l249 722h34z" />
    <glyph glyph-name="zero" unicode="0" horiz-adv-x="499" 
d="M60 174q0 119 66 256q32 64 86.5 106.5t121 42.5t106 -49.5t39.5 -139.5q0 -98 -43 -204q-51 -121 -131 -170q-46 -28 -106.5 -28t-99.5 48.5t-39 137.5zM327 557q-47 0 -93.5 -66.5t-74.5 -160.5t-28 -169.5t21 -113.5t58 -38q47 0 94.5 65.5t76 158.5t28.5 169.5
t-22.5 115.5t-59.5 39z" />
    <glyph glyph-name="one" unicode="1" horiz-adv-x="307" 
d="M178 491l1 9q0 16 -24 16l-107 -6l3 24l90 13q85 13 136 32q-18 -38 -34 -114l-98 -465h-71zM152 33l-1 -4q0 -10 12 -10h90l-4 -19h-299l4 19h111q13 0 16 14h71z" />
    <glyph glyph-name="two" unicode="2" horiz-adv-x="461" 
d="M295 557q-54 0 -82 -34t-28 -83q0 -14 3 -26q-19 -15 -47 -15q-25 0 -25 32q0 60 49 104t126 44t113.5 -30.5t36.5 -76.5t-17.5 -74.5t-27.5 -43.5t-31 -36.5t-32 -32t-36 -32.5t-32 -29l-176 -161h229q22 0 31 22l31 87h21l-10 -48q-18 -87 -18 -133q-31 9 -107 9h-281
l269 250q61 56 86.5 119.5t25.5 107.5q0 80 -71 80z" />
    <glyph glyph-name="three" unicode="3" horiz-adv-x="457" 
d="M124 282v19q89 6 151 61t62 118q0 34 -18.5 55.5t-57 21.5t-63.5 -29t-25 -61.5t5 -43.5q-18 -15 -48 -15q-25 0 -25 35q0 65 49.5 100.5t109.5 35.5t101.5 -27t41.5 -76t-42.5 -98.5t-117.5 -70.5q67 -8 103.5 -41t36.5 -79q0 -76 -66.5 -137.5t-171.5 -61.5
q-63 0 -96 26.5t-33 65.5t12 63.5t33 24.5t43 -16q-25 -41 -25 -75q0 -68 69.5 -68t115 52.5t45.5 111.5t-38.5 86t-102.5 27q-27 0 -48 -4z" />
    <glyph glyph-name="four" unicode="4" horiz-adv-x="438" 
d="M344 134h-48l-22 -105q0 -10 11 -10h66l-3 -19h-229l3 19h65q13 0 18 14l21 101h-261l399 445h31l-92 -416h48q15 0 17 14l13 49h17l-35 -155h-17q10 49 10 52q0 11 -12 11zM22 163h211l68 308z" />
    <glyph glyph-name="five" unicode="5" horiz-adv-x="463" 
d="M113 288l70 278h218q25 0 31 23l6 20h20l-9 -34q-13 -49 -29.5 -60t-62.5 -11h-160l-47 -183q55 10 86 10q86 0 131 -41t45 -101q0 -78 -66.5 -139.5t-173.5 -61.5q-63 0 -95 26.5t-32 64.5t12 63.5t37 25.5t39 -16q-25 -37 -25 -80q0 -63 70.5 -63t115 54.5t44.5 117
t-37 92t-90 29.5t-98 -14z" />
    <glyph glyph-name="six" unicode="6" horiz-adv-x="453" 
d="M156 302l3 -2q48 44 111 44t104.5 -41t41.5 -109q0 -93 -64 -149.5t-146 -56.5t-121.5 42.5t-39.5 116.5t43.5 162t132 166.5t199.5 112.5l8 -23q-63 -19 -143.5 -87.5t-128.5 -175.5zM255 315q-66 0 -100.5 -58.5t-34.5 -122t23 -94.5t61 -31q51 0 95.5 53t44.5 135
q0 56 -25 87t-64 31z" />
    <glyph glyph-name="seven" unicode="7" horiz-adv-x="394" 
d="M444 566l-216 -378q-43 -76 -43 -135q0 -22 5 -50q-20 -15 -49 -15t-29 26q0 38 86 174l177 316h-229q-24 0 -32 -23l-31 -87h-23l11 49q17 74 20 133q32 -10 106 -10h247z" />
    <glyph glyph-name="eight" unicode="8" horiz-adv-x="490" 
d="M191 300q-65 25 -65 98.5t57 127t137 53.5q61 0 95.5 -28.5t34.5 -85.5t-34.5 -102t-88.5 -62q87 -26 87 -115t-66 -143.5t-156 -54.5q-70 0 -111 31.5t-41 93t42 114.5t109 73zM259 289q-65 0 -105 -59.5t-40 -126.5q0 -44 22 -69t59 -25q53 0 100 52t47 133
q0 45 -23 70t-60 25zM316 557q-56 0 -90 -54t-34 -102t19 -69t49 -21q45 0 85 46t40 119q0 38 -19 59.5t-50 21.5z" />
    <glyph glyph-name="nine" unicode="9" horiz-adv-x="454" 
d="M330 255l-6 4q-48 -42 -107.5 -42t-98.5 41.5t-39 109.5q0 95 60.5 153t141.5 58t122 -42t41 -115.5t-42.5 -159t-129.5 -163t-199 -111.5l-8 23q64 21 144.5 85t120.5 159zM237 246q65 0 99 59.5t34 123.5t-21.5 96t-65 32t-87.5 -54t-44 -138q0 -57 24 -88t61 -31z" />
    <glyph glyph-name="colon" unicode=":" horiz-adv-x="218" 
d="M40 41q0 22 15.5 37.5t37.5 15.5t37.5 -15.5t15.5 -37.5t-15.5 -37.5t-37.5 -15.5t-37.5 15.5t-15.5 37.5zM112 373q0 22 15.5 37.5t37.5 15.5t37.5 -15.5t15.5 -37.5t-15.5 -37.5t-37.5 -15.5t-37.5 15.5t-15.5 37.5z" />
    <glyph glyph-name="semicolon" unicode=";" horiz-adv-x="201" 
d="M-15 -111q65 50 65 105q0 30 -21 49q5 23 23.5 40t39.5 17q41 0 41 -41t-40.5 -97.5t-99.5 -86.5zM95 373q0 22 15.5 37.5t37.5 15.5t37.5 -15.5t15.5 -37.5t-15.5 -37.5t-37.5 -15.5t-37.5 15.5t-15.5 37.5z" />
    <glyph glyph-name="less" unicode="&#x3c;" 
d="M506 450l-351 -154l286 -153l-12 -55l-334 182l11 53l412 182z" />
    <glyph glyph-name="equal" unicode="=" 
d="M437 255h-373l11 53h373zM401 85h-373l11 53h373z" />
    <glyph glyph-name="greater" unicode="&#x3e;" 
d="M68 143l350 153l-285 154l12 55l334 -182l-11 -53l-412 -182z" />
    <glyph glyph-name="question" unicode="?" horiz-adv-x="337" 
d="M255 621q49 0 83.5 -28t34.5 -71t-23 -76.5t-55.5 -59.5t-64.5 -51q-79 -60 -79 -116q0 -30 21 -62l-15 -12q-46 53 -46 100q0 59 71 121q30 25 60 51q71 63 71 117q0 31 -18.5 48.5t-43.5 17.5q-47 0 -73 -33.5t-26 -80.5q0 -13 3 -25q-17 -15 -46 -15q-23 0 -23 33
q0 57 46.5 99.5t122.5 42.5zM65 36q0 20 14.5 34t33.5 14t33.5 -14t14.5 -34t-14.5 -34t-33.5 -14t-33.5 14t-14.5 34z" />
    <glyph glyph-name="at" unicode="@" horiz-adv-x="795" 
d="M457 115h-6q-28 -62 -67 -88.5t-84 -26.5t-73 35t-28 86t20.5 97.5t58.5 87t100.5 66t138.5 26.5l11 34h26l-64 -317q-8 -42 -8 -73t15.5 -44.5t40.5 -13.5q54 0 107.5 68t53.5 179.5t-79 191t-203.5 79.5t-223.5 -97.5t-99 -222.5t79.5 -204t197.5 -79l-3 -36
q-132 0 -221 88.5t-89 219.5q0 149 111 258t250 109t227.5 -89t88.5 -216.5t-66 -206t-135 -78.5q-86 0 -86 95q0 29 9 72zM509 373q-98 -6 -166.5 -78t-68.5 -175q0 -43 15 -64.5t42 -21.5t54 24.5t47 65.5q34 70 58 168z" />
    <glyph glyph-name="A" unicode="A" horiz-adv-x="510" 
d="M361 18l-27 193h-221l-108 -193h62l-3 -18h-144l4 18h35q14 0 21 14l336 598h32l82 -598q2 -14 15 -14h35l-3 -18h-181l3 18h62zM291 528l-163 -289h202z" />
    <glyph glyph-name="B" unicode="B" horiz-adv-x="530" 
d="M140 612l3 18h216q63 0 107 -32.5t44 -88t-38 -103t-96 -70.5q51 -10 82 -43t31 -83q0 -92 -72 -151t-161 -59h-246l3 18h46q13 0 16 15q120 568 120 573.5t-11 5.5h-44zM320 321h-116l-63 -298h116q66 0 111 60.5t45 128.5q0 48 -23.5 78.5t-69.5 30.5zM334 607h-70
l-56 -266h69q74 0 122 52t48 113q0 44 -28.5 72.5t-84.5 28.5z" />
    <glyph glyph-name="C" unicode="C" horiz-adv-x="549" 
d="M437 14l1 8q0 13 -11 13q-8 0 -31 -11q-69 -36 -131 -36q-99 0 -157 60t-58 168q0 73 24 147t67.5 137t112.5 102.5t150 39.5q62 0 116 -36q18 -11 26 -11q12 0 19 21l6 20h18l-37 -173h-17q1 8 1 23q0 65 -38.5 96t-103.5 31t-120 -42t-88 -105q-67 -132 -67 -262
q0 -89 39 -138t108 -49t125 36.5t81 113.5h17l-35 -167h-18z" />
    <glyph glyph-name="D" unicode="D" horiz-adv-x="611" 
d="M379 607h-115l-123 -584h116q64 0 118 40t87 101q68 127 68 253q0 90 -41.5 140t-109.5 50zM143 630h242q100 0 158 -58.5t58 -163.5q0 -71 -24.5 -142.5t-67.5 -131t-110.5 -97t-146.5 -37.5h-242l3 18h46q13 0 16 15q120 568 120 573.5t-11 5.5h-44z" />
    <glyph glyph-name="E" unicode="E" horiz-adv-x="542" 
d="M143 630h301q76 0 108 9q-15 -35 -36 -129l-10 -47h-22l13 127q0 17 -22 17h-211l-59 -278h202q10 1 14 14l20 62h17l-39 -180h-17l9 62q0 14 -11 14h-200l-59 -278h221q24 0 31 22l42 122h22l-10 -47q-19 -89 -19 -129q-29 9 -103 9h-315l3 18h46q13 0 16 15
q120 568 120 573.5t-11 5.5h-44z" />
    <glyph glyph-name="F" unicode="F" horiz-adv-x="501" 
d="M143 630h296q75 0 107 9q-13 -30 -35 -129l-10 -47h-22l10 123q0 16 -22 16h-204l-58 -273h197q12 2 15 14l18 62h17l-39 -180h-17l10 62q0 14 -12 14h-195l-57 -273q0 -10 10 -10h83l-3 -18h-222l3 18h46q13 0 16 15q120 568 120 573.5t-11 5.5h-44z" />
    <glyph glyph-name="G" unicode="G" horiz-adv-x="579" 
d="M531 226l-7 -34q-19 -89 -91.5 -146.5t-169.5 -57.5t-155 60t-58 168q0 73 24 147t67.5 137t112.5 102.5t150 39.5q62 0 116 -36q18 -11 26 -11q12 0 19 21l6 20h18l-37 -173h-17q1 8 1 23q0 65 -38.5 96t-103.5 31t-120 -42t-88 -105q-67 -132 -67 -262q0 -90 40 -138.5
t117.5 -48.5t123.5 51t64 161q0 11 -10 11h-63l3 18h183l-3 -18h-25q-15 0 -18 -14z" />
    <glyph glyph-name="H" unicode="H" horiz-adv-x="673" 
d="M628 598l-120 -570q0 -10 11 -10h44l-3 -18h-184l3 18h46q13 0 16 15l57 268h-300q-56 -265 -56 -274t11 -9h44l-3 -18h-184l3 18h46q13 0 16 15q120 568 120 573.5t-11 5.5h-44l3 18h184l-3 -18h-45q-13 0 -17 -14l-58 -269h299q58 273 58 278t-11 5h-44l3 18h184
l-3 -18h-45q-13 0 -17 -14z" />
    <glyph glyph-name="I" unicode="I" horiz-adv-x="307" 
d="M262 598l-120 -570q0 -10 11 -10h44l-3 -18h-184l3 18h46q13 0 16 15q120 568 120 573.5t-11 5.5h-44l3 18h184l-3 -18h-45q-13 0 -17 -14z" />
    <glyph glyph-name="J" unicode="J" horiz-adv-x="297" 
d="M58 -45l137 649q0 8 -11 8h-44l3 18h184l-3 -18h-45q-13 0 -17 -14l-100 -471q-61 -286 -195 -286q-44 0 -63.5 19.5t-19.5 49t14.5 54t40 24.5t37.5 -15q-29 -42 -29 -75q0 -14 8.5 -23.5t29 -9.5t42 22t31.5 68z" />
    <glyph glyph-name="K" unicode="K" horiz-adv-x="568" 
d="M262 598l-120 -570q0 -10 11 -10h44l-3 -18h-184l3 18h46q13 0 16 15q120 568 120 573.5t-11 5.5h-44l3 18h184l-3 -18h-45q-13 0 -17 -14zM405 175l2 -92q2 -62 33 -62q20 0 33.5 21t13.5 54l19 3q0 -51 -26.5 -81t-66.5 -30q-71 0 -75 107l-4 98q-3 65 -27 90.5
t-79 25.5l5 16l285 287h-47l3 18h129l-3 -18h-26q-16 0 -29 -14l-271 -271q72 -1 100.5 -42t30.5 -110z" />
    <glyph glyph-name="L" unicode="L" horiz-adv-x="453" 
d="M262 598l-121 -575h197q25 0 32 22l41 122h22l-10 -47q-19 -87 -19 -129q-29 9 -103 9h-291l3 18h46q13 0 16 15q120 568 120 573.5t-11 5.5h-44l3 18h184l-3 -18h-45q-13 0 -17 -14z" />
    <glyph glyph-name="M" unicode="M" horiz-adv-x="769" 
d="M649 565l-328 -565h-32l-80 565q-112 -532 -112 -539.5t11 -7.5h44l-3 -18h-149l3 18h46q13 0 16 15q120 568 120 573.5t-11 5.5h-44l3 18h136l75 -536l309 536h136l-3 -18h-45q-13 0 -17 -14q-13 -63 -46 -220q-74 -343 -74 -351.5t11 -8.5h44l-3 -18h-184l3 18h46
q13 0 16 15z" />
    <glyph glyph-name="N" unicode="N" horiz-adv-x="639" 
d="M273 630l199 -505q101 478 101 482.5t-11 4.5h-44l3 18h148l-3 -18h-45q-13 0 -17 -14l-126 -598h-30l-234 587q-117 -556 -117 -562.5t11 -6.5h44l-3 -18h-149l3 18h46q13 0 16 15q120 568 120 573.5t-11 5.5h-44l3 18h140z" />
    <glyph glyph-name="O" unicode="O" horiz-adv-x="627" 
d="M280 616q58 26 123 26q99 0 156.5 -59.5t57.5 -167.5q0 -73 -24 -147.5t-67 -137.5t-112 -102.5t-159 -39.5t-147.5 60t-57.5 174t62.5 230t167.5 164zM400 616q-66 0 -122 -42.5t-89 -107.5q-69 -134 -69 -260q0 -91 39.5 -141.5t106 -50.5t122.5 42.5t90 106.5
q69 133 69 260q0 91 -40.5 142t-106.5 51z" />
    <glyph glyph-name="P" unicode="P" horiz-adv-x="492" 
d="M286 251h-98q-46 -212 -46 -222.5t11 -10.5h73l-3 -18h-213l3 18h46q13 0 16 15q120 568 120 573.5t-11 5.5h-44l3 18h223q68 0 112 -38t44 -105q0 -106 -73 -171t-163 -65zM355 607h-91l-71 -333h94q72 0 120.5 70t48.5 147q0 50 -25.5 83t-75.5 33z" />
    <glyph glyph-name="Q" unicode="Q" horiz-adv-x="627" 
d="M338 27l6 -18q-54 -20 -102 -20q-90 0 -141 65t-51 162q0 120 60 232q65 120 170 168q58 26 123 26q99 0 156.5 -59.5t57.5 -161.5t-28.5 -186t-75 -141.5t-104.5 -98.5q-113 -80 -229 -80v-5q29 0 78.5 -24.5t79.5 -24.5q65 0 124 96l12 -6q-79 -149 -155 -149
q-38 0 -88.5 41t-77 41t-45 -15.5t-38.5 -52.5l-12 5q28 81 72 103q21 10 56.5 13.5t75.5 15t94.5 44.5t94 82.5t68 139t28.5 192.5t-40.5 154t-106.5 51t-122 -42.5t-89 -107.5q-69 -134 -69 -260q0 -82 34.5 -137t108.5 -55q35 0 75 13z" />
    <glyph glyph-name="R" unicode="R" horiz-adv-x="567" 
d="M259 291h-63q-54 -257 -54 -265t11 -8h64l-3 -18h-204l3 18h46q13 0 16 15q120 568 120 573.5t-11 5.5h-44l3 18h227q69 0 114.5 -35.5t45.5 -104t-49.5 -121.5t-122.5 -71q70 -27 70 -109q0 -29 -9.5 -77t-9.5 -62q0 -28 22 -28t46 31.5t43 89.5l17 -4
q-27 -80 -60 -115.5t-78 -35.5q-22 0 -37 16.5t-15 46.5t9.5 77t9.5 84q0 79 -107 79zM360 607h-96l-63 -292h100q70 0 116.5 59t46.5 125q0 47 -26.5 77.5t-77.5 30.5z" />
    <glyph glyph-name="S" unicode="S" horiz-adv-x="457" 
d="M177 -12q-71 0 -125 36q-18 11 -25 11q-18 0 -23 -35h-19l35 167h18q-1 -8 -1 -24q0 -65 37.5 -95.5t103 -30.5t110 46.5t44.5 107t-62 90.5l-80 41q-94 46 -94 143q0 76 59 136.5t148 60.5q59 0 107 -33q16 -11 22 -11q10 0 17 21l5 17h18l-37 -173h-17q2 20 2 29
q0 62 -31.5 91.5t-90.5 29.5t-100.5 -44t-41.5 -99q0 -68 61 -100l103 -53q83 -43 83 -121.5t-68 -143t-158 -64.5z" />
    <glyph glyph-name="T" unicode="T" horiz-adv-x="472" 
d="M190 630h255q75 0 107 9q-13 -30 -35 -129l-10 -47h-22l11 121q0 18 -23 18h-128q-121 -571 -121 -577.5t11 -6.5h86l-3 -18h-268l3 18h88q13 0 16 15l120 569h-127q-24 0 -31 -22l-39 -117h-22l10 47q19 87 19 129q29 -9 103 -9z" />
    <glyph glyph-name="U" unicode="U" horiz-adv-x="609" 
d="M89 195l87 409q0 8 -11 8h-45l3 18h184l-3 -18h-45q-13 0 -17 -14l-87 -410q-6 -28 -6 -51q0 -59 35 -87.5t93 -28.5q55 0 115 38q64 41 84 135l86 407q0 11 -10 11h-45l3 18h149l-3 -18h-45q-13 0 -17 -14l-85 -403q-22 -104 -89.5 -155.5t-156.5 -51.5q-181 0 -181 147
q0 29 7 60z" />
    <glyph glyph-name="V" unicode="V" horiz-adv-x="501" 
d="M73 630h166l-3 -18h-47l57 -503l270 503h-47l3 18h129l-3 -18h-35q-14 0 -21 -14l-322 -598h-32l-68 598q-2 14 -15 14h-35z" />
    <glyph glyph-name="W" unicode="W" horiz-adv-x="814" 
d="M785 630h129l-3 -18h-35q-14 0 -21 -14l-303 -598h-32l-50 498l-259 -498h-32l-49 598q-2 14 -15 14h-35l3 18h166l-3 -18h-47l41 -495l226 434l-5 47q-2 14 -15 14h-35l3 18h167l-3 -18h-48l50 -492l249 492h-47z" />
    <glyph glyph-name="X" unicode="X" horiz-adv-x="488" 
d="M337 18l-92 262l-214 -262h47l-3 -18h-130l3 18h35q9 0 21 14l230 280l-99 286q-5 14 -15 14h-36l3 18h167l-3 -18h-48l86 -247l203 247h-47l3 18h130l-3 -18h-35q-11 0 -21 -12l-219 -266l106 -302q5 -14 15 -14h35l-3 -18h-166l3 18h47z" />
    <glyph glyph-name="Y" unicode="Y" horiz-adv-x="455" 
d="M247 190l-44 -5l-92 413q-3 14 -15 14h-35l3 18h165l-3 -18h-47l80 -355l211 355h-47l3 18h129l-3 -18h-35q-12 0 -21 -14zM201 242l64 -17q-41 -194 -41 -200.5t11 -6.5h66l-3 -18h-228l3 18h68q13 0 16 15z" />
    <glyph glyph-name="Z" unicode="Z" horiz-adv-x="546" 
d="M0 0l5 28l465 574h-251q-24 0 -31 -22l-39 -117h-22l10 47q18 82 18 129q31 -9 104 -9h307l-6 -28l-464 -574h270q25 0 32 22l39 117h22l-10 -47q-18 -82 -18 -129q-29 9 -104 9h-327z" />
    <glyph glyph-name="bracketleft" unicode="[" horiz-adv-x="250" 
d="M70 -75l-1 -4q0 -10 11 -10h73l-4 -18h-75q-56 0 -82 -6l160 749q22 -6 78 -6h75l-3 -18h-73q-14 0 -16 -14z" />
    <glyph glyph-name="backslash" unicode="\" horiz-adv-x="319" 
d="M301 -74h-33l-250 722h34z" />
    <glyph glyph-name="bracketright" unicode="]" horiz-adv-x="250" 
d="M52 -75l143 673v2q0 12 -10 12h-74l3 18h76q57 0 81 6l-160 -749q-20 6 -77 6h-76l4 18h74q12 0 16 14z" />
    <glyph glyph-name="asciicircum" unicode="^" 
d="M384 644l80 -374h-52l-65 314l-198 -314h-53l238 374h50z" />
    <glyph glyph-name="underscore" unicode="_" horiz-adv-x="406" 
d="M34 -51l8 39h329l-8 -39h-329z" />
    <glyph glyph-name="grave" unicode="`" horiz-adv-x="232" 
d="M189 489l-131 77q-27 15 -27 40q0 14 8 23.5t23.5 9.5t28.5 -14l111 -120z" />
    <glyph glyph-name="a" unicode="a" horiz-adv-x="500" 
d="M379 202q-31 -119 -31 -152.5t25 -33.5q19 0 41 25.5t38 72.5l16 -4q-43 -122 -112 -122q-62 0 -62 75q0 15 5 48h-5q-62 -123 -144 -123q-47 0 -78.5 41.5t-31.5 102t16 112.5t45 97.5t77 74t105 28.5q74 0 117 -63l31 54l14 -10q-35 -104 -66 -223zM174 18q42 0 85 65
q49 75 91 245q9 40 14 58q-35 34 -80.5 34t-81 -31t-55.5 -78q-41 -96 -41 -181q0 -56 18.5 -84t49.5 -28z" />
    <glyph glyph-name="b" unicode="b" horiz-adv-x="467" 
d="M129 172h8l16 44q84 228 184 228q47 0 78.5 -41.5t31.5 -102t-16 -112.5t-45 -97.5t-77 -74t-98 -28.5t-86 19.5t-56 51.5l9 27q48 -76 123 -76q57 0 99 52.5t59.5 116t17.5 117t-17.5 82t-40.5 28.5t-46 -19.5t-50 -60.5q-58 -90 -109 -295l-30 32l-30 -75l-17 6
l157 626l-64 -5l-1 17q69 9 129 25l14 -10q-81 -236 -143 -475z" />
    <glyph glyph-name="c" unicode="c" horiz-adv-x="397" 
d="M276 420q-41 0 -75.5 -31t-54.5 -77q-40 -97 -40 -168q0 -132 80 -132q99 0 145 108l16 -4q-24 -61 -69.5 -94.5t-102.5 -33.5t-96 42t-39 113t27 137.5t84 115t130 48.5q50 0 75.5 -25.5t25.5 -61t-12.5 -63.5t-39 -28t-39.5 16q29 44 29 86q0 52 -44 52z" />
    <glyph glyph-name="d" unicode="d" horiz-adv-x="500" 
d="M348 49q0 -33 25 -33q19 0 41 25.5t38 72.5l16 -4q-43 -122 -112 -122q-62 0 -62 78.5t131 553.5l-64 -5l-1 17q69 9 129 25l14 -10q-42 -123 -98.5 -333.5t-56.5 -264.5zM304 111h-10q-62 -123 -144 -123q-47 0 -78.5 41.5t-31.5 102t16 112.5t45 97.5t77 74t98 28.5
q96 0 136 -84l-14 -18q-47 78 -117 78q-43 0 -78.5 -31t-55.5 -78q-41 -96 -41 -181q0 -56 18.5 -84t49.5 -28q43 0 88 72.5t80 207.5z" />
    <glyph glyph-name="e" unicode="e" horiz-adv-x="397" 
d="M360.5 418.5q26.5 -25.5 26.5 -73t-37 -82.5q-63 -60 -187 -60q-37 0 -64 6v19q35 -5 58 -5q83 0 128.5 42t45.5 92q0 27 -14.5 45t-48 18t-68 -31t-54.5 -77q-40 -97 -40 -168q0 -132 80 -132q99 0 145 108l16 -4q-24 -61 -69.5 -94.5t-102.5 -33.5t-96 42t-39 113
t27 137.5t84 115t130 48.5q53 0 79.5 -25.5z" />
    <glyph glyph-name="f" unicode="f" horiz-adv-x="290" 
d="M52 396l5 19h252l-5 -19h-252zM222 471l-94 -439q-29 -132 -71 -196t-102 -64q-38 0 -59 23t-21 51.5t11.5 51t36.5 22.5t36 -13q-13 -10 -21.5 -30t-8.5 -39q0 -43 36 -43q40 0 61 62t58 249l58 296q21 106 74 182t123 76q50 0 75.5 -23t25.5 -54t-12.5 -56t-39.5 -25
t-39 14q29 37 29 75q0 46 -43.5 46t-69.5 -43.5t-43 -122.5z" />
    <glyph glyph-name="g" unicode="g" horiz-adv-x="426" 
d="M111 58l159 -36q52 -12 74 -32.5t22 -56.5q0 -58 -63.5 -109.5t-144.5 -51.5t-131.5 37t-50.5 88q0 35 23.5 67t69.5 54l20 -6q-30 -15 -46 -45.5t-16 -64.5q0 -56 37 -83.5t95.5 -27.5t108 33.5t49.5 80.5t-61 61l-172 38q-29 6 -45 27t-16 51t25 55t69 25h101l-3 -14
h-98q-21 0 -33.5 -13t-12.5 -31q0 -37 40 -46zM279 430l-1 14q28 0 47 13.5t19 35.5t-32 42q16 34 38.5 34t34 -13t11.5 -33q0 -35 -31.5 -64t-85.5 -29zM96 257q0 74 52.5 130.5t129.5 56.5q54 0 85.5 -28.5t31.5 -80.5q0 -84 -54 -135.5t-126 -51.5q-55 0 -87 28.5
t-32 80.5zM277 425q-55 0 -90 -60.5t-35 -107.5t17.5 -68.5t46.5 -21.5q44 0 84 50t40 126q0 38 -17.5 60t-45.5 22z" />
    <glyph glyph-name="h" unicode="h" horiz-adv-x="495" 
d="M107 0l-70 -6l157 626l-64 -5l-1 17q69 9 129 25l14 -10q-81 -236 -143 -475h8l16 44q54 151 117 196q30 20 49.5 26t49 6t50.5 -24t21 -67t-48.5 -158t-48.5 -147t25 -32q19 0 41 25.5t38 72.5l16 -4q-43 -122 -112 -122q-62 0 -62 68q0 29 45.5 144t45.5 148
q0 63 -46 63q-50 0 -108 -81q-67 -97 -119 -330z" />
    <glyph glyph-name="i" unicode="i" horiz-adv-x="276" 
d="M170 576q0 19 13 32t32 13t32 -13t13 -32t-13 -32t-32 -13t-32 13t-13 32zM70 63q0 53 73 335l-64 -5l-1 17q69 9 129 25l14 -10q-35 -104 -66 -223t-31 -152.5t25 -33.5q19 0 41 25.5t38 72.5l16 -4q-43 -122 -112 -122q-62 0 -62 75z" />
    <glyph glyph-name="j" unicode="j" horiz-adv-x="250" 
d="M170 576q0 19 13 32t32 13t32 -13t13 -32t-13 -32t-32 -13t-32 13t-13 32zM143 398l-64 -5l-1 17q69 9 129 25l14 -10l-95 -393q-33 -134 -72.5 -197t-98.5 -63q-38 0 -59 23t-21 51.5t11.5 51t36.5 22.5t36 -13q-13 -10 -21.5 -30t-8.5 -39q0 -43 36 -43q40 0 61 62
t58 249z" />
    <glyph glyph-name="k" unicode="k" horiz-adv-x="468" 
d="M162 220l4 13h40q83 0 131.5 43.5t48.5 90.5q0 21 -12 34.5t-35.5 13.5t-51 -19.5t-58.5 -63.5q-68 -98 -122 -332l-70 -6l157 626l-64 -5l-1 17q69 9 129 25l14 -10q-81 -236 -143 -475h8l17 44q51 132 102.5 180t108.5 48q35 0 54.5 -19.5t19.5 -49.5q0 -58 -60.5 -108
t-166.5 -50q-28 0 -50 3zM162 217l22 11q82 0 108 -35t26 -144q0 -33 25 -33q19 0 41 25.5t38 72.5l16 -4q-43 -122 -112 -122q-32 0 -50 18t-18 60t-4.5 73.5t-23 55t-52.5 23.5q-11 0 -16 -1zM245 205v22h18l-4 -22h-14z" />
    <glyph glyph-name="l" unicode="l" horiz-adv-x="266" 
d="M114 49q0 -33 25 -33q19 0 41 25.5t38 72.5l16 -4q-43 -122 -112 -122q-62 0 -62 78.5t131 553.5l-64 -5l-1 17q69 9 129 25l14 -10q-42 -123 -98.5 -333.5t-56.5 -264.5z" />
    <glyph glyph-name="m" unicode="m" horiz-adv-x="736" 
d="M359 0l-71 -6l36 137q6 23 18.5 68t18.5 69q17 66 17 89t-11.5 38.5t-34.5 15.5q-50 0 -109 -101t-108 -310l-70 -6l98 404l-64 -5l-1 17q69 9 129 25l14 -10q-48 -110 -84 -253h8l16 44q47 128 100 178t99 50q70 0 70 -79q0 -46 -29 -130l-21 -63h9l16 44
q54 151 117 196q30 20 49.5 26t46.5 6t45 -24t18 -67t-48.5 -158t-48.5 -147t25 -32q19 0 41 25.5t38 72.5l16 -4q-43 -122 -112 -122q-62 0 -62 68q0 29 45.5 144t45.5 157q0 54 -35 54q-50 0 -108 -81q-67 -97 -119 -330z" />
    <glyph glyph-name="n" unicode="n" horiz-adv-x="503" 
d="M399.5 195q-48.5 -115 -48.5 -147t25 -32q19 0 41 25.5t38 72.5l16 -4q-43 -122 -112 -122q-62 0 -62 68q0 29 45.5 144t45.5 148q0 63 -46 63q-50 0 -108 -81q-67 -97 -119 -330l-70 -6l98 404l-64 -5l-1 17q69 9 129 25l14 -10q-48 -110 -84 -253h8l16 44
q54 151 117 196q30 20 49.5 26t49 6t50.5 -24t21 -67t-48.5 -158z" />
    <glyph glyph-name="o" unicode="o" horiz-adv-x="460" 
d="M40 145q0 103 60 197q29 45 76 73.5t107.5 28.5t98.5 -41t38 -112t-26 -138t-82 -116t-126 -49t-108 41t-38 116zM275 422q-54 0 -95.5 -54t-59 -118t-17.5 -119.5t22.5 -88t62 -32.5t74 32t54.5 79q41 96 41 166.5t-22 102.5t-60 32z" />
    <glyph glyph-name="p" unicode="p" horiz-adv-x="476" 
d="M208 435l14 -10q-48 -110 -84 -253h8l16 44q83 228 190 228q43 0 73.5 -42t30.5 -102t-15.5 -111.5t-44.5 -96t-76 -72.5t-104 -28q-87 0 -136 77l7 17q48 -73 126 -73q45 0 80.5 30t54.5 75q38 92 38 180q0 51 -14.5 79.5t-37.5 28.5q-47 0 -105.5 -91t-105.5 -284
l-60 -247l-70 -6l151 620l-64 -5l-1 17q69 9 129 25z" />
    <glyph glyph-name="q" unicode="q" horiz-adv-x="461" 
d="M373 401l30 -32l30 75l17 -6l-169 -626l64 5l1 -17q-69 -9 -129 -25l-14 10l96 326h-5q-64 -123 -144 -123q-47 0 -78.5 41.5t-31.5 102t16 112.5t45 97.5t77 74t98 28.5t86 -19.5t56 -51.5l-9 -27q-48 73 -123 73q-44 0 -80.5 -30t-57.5 -75q-42 -95 -42 -180
q0 -55 19 -85.5t47 -30.5q48 0 100.5 90.5t100.5 292.5z" />
    <glyph glyph-name="r" unicode="r" horiz-adv-x="371" 
d="M207 435l14 -10q-48 -110 -84 -253h8l16 44q47 128 93 178t80 50t50.5 -22t16.5 -57t-13 -61t-37.5 -26t-40.5 16q10 13 19 38t9 44q0 29 -24 29q-25 0 -62 -49q-81 -106 -137 -356l-70 -6l98 404l-64 -5l-1 17q69 9 129 25z" />
    <glyph glyph-name="s" unicode="s" horiz-adv-x="379" 
d="M166 398q-27 -22 -27 -56t28 -62t61 -46.5t61 -48.5t28 -64q0 -64 -49.5 -98.5t-119.5 -34.5t-123 33q17 34 32 118l17 -3q-7 -41 -7 -64.5t22.5 -43t65 -19.5t72 26t29.5 68q0 27 -26.5 52.5t-58 42.5t-58 48t-26.5 68q0 55 43.5 92.5t114.5 37.5q55 0 109 -27
q-5 -11 -16.5 -50t-17.5 -74l-17 3q6 32 6 61.5t-19.5 46t-58 16.5t-65.5 -22z" />
    <glyph glyph-name="t" unicode="t" horiz-adv-x="276" 
d="M67 396l5 19h222l-5 -19h-222zM226 538l14 -10q-23 -70 -61.5 -220t-46.5 -193.5t-8 -65.5q0 -33 25 -33q19 0 41 25.5t38 72.5l16 -4q-43 -122 -112 -122q-62 0 -62 75q0 62 74 346l-72 6q55 0 89 26.5t65 96.5z" />
    <glyph glyph-name="u" unicode="u" horiz-adv-x="517" 
d="M311 63q0 15 5 48h-5q-64 -123 -148 -123q-90 0 -90 100q0 65 46 241l18 69l-64 -5l-1 17q69 9 129 25l14 -10q-84 -261 -84 -334t55 -73q46 0 90.5 67.5t73.5 181.5l34 131l-64 -5l-1 17q69 9 129 25l14 -10q-35 -104 -66 -223t-31 -152.5t25 -33.5q19 0 41 25.5
t38 72.5l16 -4q-43 -122 -112 -122q-62 0 -62 75z" />
    <glyph glyph-name="v" unicode="v" horiz-adv-x="447" 
d="M200 21q64 0 125 93t61 171t-47 138q25 21 45 21t29 -25t9 -67.5t-17 -105.5t-47 -121.5t-80 -97.5t-107 -39q-37 0 -59.5 25.5t-22.5 69.5t33.5 154t33.5 144.5t-26 34.5q-19 0 -40 -25.5t-34 -72.5l-17 4q37 122 107 122q65 0 65 -70q0 -28 -31 -139t-31 -146
q0 -68 51 -68z" />
    <glyph glyph-name="w" unicode="w" horiz-adv-x="667" 
d="M358 198l15 1q-72 -211 -202 -211q-37 0 -59.5 25.5t-22.5 69.5t33.5 154t33.5 144.5t-26 34.5q-19 0 -40 -25.5t-34 -72.5l-17 4q37 122 107 122q65 0 65 -70q0 -28 -31 -139t-31 -146q0 -68 49 -68q45 0 90 53t70 124zM342 13.5q-23 25.5 -23 65.5t30.5 129.5t30.5 135
t-23 79.5q25 21 45 21t29 -25t9 -65.5t-30.5 -137t-30.5 -129.5q0 -66 48 -66q61 0 120 93t59 171t-47 138q25 21 45 21t29 -25t9 -68t-15.5 -105.5t-44 -121t-76 -97.5t-103.5 -39q-38 0 -61 25.5z" />
    <glyph glyph-name="x" unicode="x" horiz-adv-x="461" 
d="M163 444q40 0 65 -44t34.5 -107t16.5 -126q17 -151 56 -151q19 0 41 25.5t38 72.5l16 -4q-43 -122 -112 -122q-40 0 -65 44t-34.5 107t-16.5 126q-17 151 -56 151q-19 0 -41 -25.5t-38 -72.5l-16 4q43 122 112 122zM182 153l37 64l25 2l-48 -84q-83 -147 -146 -147
q-30 0 -30 54q103 9 162 111zM289 279l-37 -64l-25 -2l48 84q83 147 146 147q30 0 30 -54q-103 -9 -162 -111z" />
    <glyph glyph-name="y" unicode="y" horiz-adv-x="472" 
d="M327.5 114.5q63.5 93.5 63.5 175t-52 133.5q25 21 46 21q39 0 39 -110t-24 -201.5t-62.5 -155.5t-87.5 -111q-95 -94 -193 -94q-50 0 -75.5 23t-25.5 54t12.5 56t37.5 25t41 -14q-29 -37 -29 -68q0 -50 53 -50q35 0 81 25.5t93 72t86.5 124.5t55.5 169
q-33 -87 -88.5 -144t-127.5 -57q-37 0 -59.5 25.5t-22.5 69.5t33.5 154t33.5 144.5t-26 34.5q-19 0 -40 -25.5t-34 -72.5l-17 4q37 122 107 122q65 0 65 -70q0 -28 -31 -139t-31 -146q0 -68 51 -68q64 0 127.5 93.5z" />
    <glyph glyph-name="z" unicode="z" horiz-adv-x="371" 
d="M350 438l16 -4q-8 -46 -29 -69l-254 -276q20 -1 71.5 -22t80.5 -21q58 0 72 80l19 -3q-14 -135 -83 -135q-42 0 -98.5 32t-79.5 32q-35 0 -54 -64l-15 5q17 54 38 78l256 279q-17 1 -63 19t-74 18q-58 0 -72 -76l-19 3q14 130 83 130q43 0 93.5 -28t64.5 -28q33 0 47 50z
" />
    <glyph glyph-name="braceleft" unicode="{" horiz-adv-x="274" 
d="M128 263v-4q38 0 38 -39q0 -16 -20 -95.5t-20 -131.5t38 -91l-14 -15q-86 54 -86 166q0 67 14.5 125t14.5 63q0 11 -10 11h-38l4 18h38q13 0 16 14l12 57q35 167 115 241q33 31 79 53l7 -15q-66 -47 -89 -122q-11 -37 -21.5 -94t-15.5 -82q-13 -59 -62 -59z" />
    <glyph glyph-name="bar" unicode="|" horiz-adv-x="236" 
d="M82 -107v737h72v-737h-72z" />
    <glyph glyph-name="braceright" unicode="}" horiz-adv-x="255" 
d="M155 259v4q-38 0 -38 39q0 16 20 95.5t20 131.5t-38 91l14 15q86 -54 86 -166q0 -59 -14.5 -121t-14.5 -67q0 -11 10 -11h38l-4 -18h-38q-12 0 -16 -14l-12 -57q-35 -167 -114 -241q-34 -31 -80 -53l-7 15q66 47 89 122q11 37 21.5 94t15.5 82q13 59 62 59z" />
    <glyph glyph-name="asciitilde" unicode="~" 
d="M449 243l12 -33q-57 -46 -121 -46q-30 0 -86 12.5t-92.5 12.5t-76.5 -25l-13 33q55 44 117 44q31 0 87.5 -12.5t92 -12.5t80.5 27z" />
    <glyph glyph-name="exclamdown" unicode="&#xa1;" horiz-adv-x="260" 
d="M130 262h24q-43 -295 -59 -413q-4 -27 -20.5 -43t-37.5 -16q-34 0 -34 37q0 21 22 91.5t55 173t50 170.5zM215 396q0 -20 -14.5 -34t-33.5 -14t-33.5 14t-14.5 34t14.5 34t33.5 14t33.5 -14t14.5 -34z" />
    <glyph glyph-name="cent" unicode="&#xa2;" horiz-adv-x="412" 
d="M181 -55h-30l25 120q-64 5 -102 46.5t-38 111.5q0 117 70.5 193.5t162.5 85.5l25 119h30l-25 -119q50 -2 73.5 -26t23.5 -57t-12 -60.5t-38.5 -27.5t-39.5 15q26 42 26 77q0 55 -49 55q-65 0 -120 -75.5t-55 -193.5q0 -57 24 -88.5t69.5 -31.5t87 27t64.5 76l18 -5
q-24 -54 -69 -86.5t-96 -36.5z" />
    <glyph glyph-name="sterling" unicode="&#xa3;" horiz-adv-x="440" 
d="M117 168l-3 144q0 65 21.5 118t54.5 84q68 65 143 65q56 0 82 -24.5t26 -62.5t-13.5 -65.5t-37.5 -27.5t-41 15q29 40 29 79q0 58 -57 58t-96 -55.5t-39 -188.5q0 -119 -28 -211q-16 -50 -48 -79t-78 -29q-26 0 -39 14.5t-13 37t22 44t53.5 21.5t100.5 -24t110 -24
q71 0 107 91l23 -4q-27 -86 -61 -121t-73.5 -35t-71 14.5t-48.5 32.5q-46 47 -90 47q-21 0 -34.5 -14t-13.5 -31q0 -29 31 -29t56.5 38.5t25.5 121.5zM322 278l-7 -31h-280l7 31h280z" />
    <glyph glyph-name="currency" unicode="&#xa4;" horiz-adv-x="463" 
d="M112 212l37 -38l-85 -85l-38 37zM349 374l-38 37l89 89l37 -38zM102 294q0 -54 38 -92t92 -38t92 38t38 92t-38 92t-92 38t-92 -38t-38 -92zM72 294q0 66 47 113t113 47t113 -47t47 -113t-47 -113t-113 -47t-113 47t-47 113zM314 175l38 37l85 -85l-37 -38zM152 412
l-37 -38l-89 89l38 37z" />
    <glyph glyph-name="yen" unicode="&#xa5;" horiz-adv-x="440" 
d="M415 278l-7 -31h-126l-27 -43q-37 -174 -37 -176q0 -10 11 -10h76l-3 -18h-248l3 18h78q13 0 16 15l37 178l-9 36h-127l7 31h112l-8 34h-97l7 31h82l-47 191q-4 14 -15 14h-18l3 18h138l-3 -18h-37l77 -299l184 299h-32l3 18h96l-3 -18h-17q-12 0 -21 -14l-121 -191h87
l-7 -31h-99l-22 -34h114z" />
    <glyph glyph-name="brokenbar" unicode="&#xa6;" horiz-adv-x="236" 
d="M82 366v264h72v-264h-72zM82 -107v264h72v-264h-72z" />
    <glyph glyph-name="section" unicode="&#xa7;" horiz-adv-x="441" 
d="M148 245l10 20l109 -64q42 -25 66.5 -67.5t24.5 -84.5q0 -67 -51 -116.5t-133.5 -49.5t-120.5 37.5t-38 83t18.5 73t49.5 27.5t49 -21q-43 -26 -43 -88q0 -32 20.5 -53.5t69 -21.5t79.5 38t31 88.5t-24 96t-63 69.5zM308 280l-10 -20l-109 64q-42 25 -66.5 67.5
t-24.5 84.5q0 67 51 116.5t133.5 49.5t120.5 -37.5t38 -83t-18.5 -73t-49.5 -27.5t-49 21q43 26 43 88q0 32 -20.5 53.5t-69 21.5t-79.5 -38t-31 -88.5t24 -96t63 -69.5z" />
    <glyph glyph-name="dieresis" unicode="&#xa8;" horiz-adv-x="310" 
d="M30 576q0 19 13 32t32 13t32 -13t13 -32t-13 -32t-32 -13t-32 13t-13 32zM190 576q0 19 13 32t32 13t32 -13t13 -32t-13 -32t-32 -13t-32 13t-13 32z" />
    <glyph glyph-name="copyright" unicode="&#xa9;" horiz-adv-x="549" 
d="M351 281q-2 0 -13 -7q-35 -20 -76 -20t-70.5 30.5t-29.5 85.5q0 95 54.5 154t124.5 59q23 0 45 -11.5t25 -11.5q7 0 12 10l4 11h11l-20 -94h-11v8q0 34 -19.5 49.5t-50.5 15.5q-46 0 -85.5 -55.5t-39.5 -140.5q0 -42 17 -65t48 -23t59.5 18t41.5 55h11l-19 -89h-11v11
q0 10 -8 10zM70 366q0 109 87.5 201.5t200.5 92.5q81 0 132.5 -53.5t51.5 -134.5q0 -116 -89 -206t-198 -90q-81 0 -133 54t-52 136zM95 366q0 -71 45 -118t115 -47q99 0 180.5 82.5t81.5 188.5q0 70 -44.5 116.5t-114.5 46.5q-104 0 -183.5 -84.5t-79.5 -184.5z" />
    <glyph glyph-name="ordfeminine" unicode="&#xaa;" horiz-adv-x="367" 
d="M281 500q-18 -70 -18 -89t10.5 -19t22.5 15t21 43l11 -2q-14 -40 -29.5 -56.5t-37.5 -16.5q-39 0 -39 45q0 9 1 14h-4q-31 -59 -79 -59q-30 0 -50 25t-20 67q0 66 40 123.5t107 57.5q43 0 73 -37l18 31l12 -9q-21 -63 -39 -133zM154 393q61 0 111 221q-20 20 -49.5 20
t-53.5 -32q-44 -60 -44 -134.5t36 -74.5z" />
    <glyph glyph-name="guillemotleft" unicode="&#xab;" horiz-adv-x="375" 
d="M175 225l3 12l188 171l12 -14l-123 -163l54 -163l-18 -14zM33 225l3 12l188 171l13 -14l-124 -163l55 -163l-19 -14z" />
    <glyph glyph-name="logicalnot" unicode="&#xac;" 
d="M420 44h-50l27 126h-323l11 53h373z" />
    <glyph glyph-name="registered" unicode="&#xae;" horiz-adv-x="549" 
d="M70 366q0 109 87.5 201.5t200.5 92.5q81 0 132.5 -53.5t51.5 -134.5q0 -116 -89 -206t-198 -90q-81 0 -133 54t-52 136zM283 276l-3 -14h-116l3 14h16q14 0 17 12q56 260 56 268.5t-11 8.5h-16l3 14h115q36 0 59 -19t23 -54t-22 -61.5t-57 -38.5l34 -121q4 -9 10 -9h11
l-3 -14h-27q-21 0 -37 -4l-38 141h-28q-23 -110 -23 -113q0 -10 10 -10h24zM340 558h-34l-29 -137h34q30 0 49.5 28t19.5 61q0 48 -40 48zM95 366q0 -71 45 -118t115 -47q99 0 180.5 82.5t81.5 188.5q0 70 -44.5 116.5t-114.5 46.5q-104 0 -183.5 -84.5t-79.5 -184.5z" />
    <glyph glyph-name="macron" unicode="&#xaf;" horiz-adv-x="301" 
d="M30 557l11 54h230l-11 -54h-230z" />
    <glyph glyph-name="degree" unicode="&#xb0;" horiz-adv-x="258" 
d="M122.5 605q32.5 34 75 34t71.5 -27.5t29 -70.5t-33 -77t-77 -34t-71 28t-27 70.5t32.5 76.5zM244.5 587q-18.5 18 -46.5 18t-50.5 -23.5t-22.5 -52.5t17 -47t46.5 -18t52 23.5t22.5 52.5t-18.5 47z" />
    <glyph glyph-name="plusminus" unicode="&#xb1;" 
d="M353 492l-36 -169h162l-11 -53h-162l-36 -170h-50l36 170h-161l11 53h161l36 169h50zM411 0h-373l11 53h373z" />
    <glyph glyph-name="twosuperior" unicode="&#xb2;" horiz-adv-x="292" 
d="M236 511q0 49 -47 49q-25 0 -40 -22t-15 -50q0 -6 2 -16q-14 -10 -35.5 -10t-21.5 24q0 37 33 65t83 28t74.5 -19.5t24.5 -49.5q0 -29 -23 -60q-24 -33 -55.5 -63t-35.5 -34l-97 -95h123q10 0 14 11l19 57h19l-7 -33q-8 -36 -12 -88q-28 8 -72 8h-163l162 161
q36 36 53 74.5t17 62.5z" />
    <glyph glyph-name="threesuperior" unicode="&#xb3;" horiz-adv-x="292" 
d="M77 388l2 17l27 5q46 8 72.5 41.5t26.5 71t-34 37.5q-21 0 -34.5 -17.5t-13.5 -35t3 -28.5q-16 -13 -36.5 -13t-20.5 26q0 41 33.5 64t70 23t62 -17.5t25.5 -47t-24.5 -60t-64.5 -46.5q34 -6 52 -26.5t18 -47.5q0 -50 -43.5 -89.5t-107.5 -39.5q-41 0 -60.5 17t-19.5 42
t9.5 42t27.5 17t30 -12q-19 -25 -19 -51q0 -35 37 -35t63 32.5t26 67.5q0 67 -74 67q-14 0 -33 -4z" />
    <glyph glyph-name="acute" unicode="&#xb4;" horiz-adv-x="232" 
d="M174 566l-131 -77l-13 16l111 120q13 14 28.5 14t23.5 -9.5t8 -23.5q0 -25 -27 -40z" />
    <glyph glyph-name="mu" unicode="&#xb5;" horiz-adv-x="517" 
d="M400 8l-7 -20q-82 0 -82 75q0 15 5 48h-5q-64 -123 -148 -123q-60 0 -79 48q-12 -62 -12 -96q0 -77 50 -119q-13 -16 -35 -26.5t-36 -10.5q-31 0 -31 52.5t40.5 236.5t76.5 325l-64 -5l-1 17q69 9 129 25l14 -10q-84 -261 -84 -334t55 -73q47 0 90 65.5t74 183.5l34 131
l-64 -5l-1 17q69 9 129 25l14 -10q-35 -104 -66 -223t-31 -156.5t35 -37.5z" />
    <glyph glyph-name="paragraph" unicode="&#xb6;" horiz-adv-x="428" 
d="M420 598l-146 -685q-14 -65 -49.5 -95.5t-119.5 -39.5v24q85 18 100 93l153 717h-72q-97 0 -152.5 -59t-55.5 -128q0 -42 18 -64t48.5 -22t58 31.5t27.5 81.5q0 13 -3 25q17 15 46 15q23 0 23 -33q0 -67 -48.5 -107t-104 -40t-89 28.5t-33.5 83.5q0 75 72 140.5t186 65.5
h205l-3 -18h-45q-12 0 -16 -14z" />
    <glyph glyph-name="periodcentered" unicode="&#xb7;" horiz-adv-x="192" 
d="M43 280q0 22 15.5 37.5t37.5 15.5t37.5 -15.5t15.5 -37.5t-15.5 -37.5t-37.5 -15.5t-37.5 15.5t-15.5 37.5z" />
    <glyph glyph-name="cedilla" unicode="&#xb8;" horiz-adv-x="226" 
d="M133 0h16l-19 -46q31 -6 47 -26t16 -50.5t-30 -62t-80 -31.5q-26 0 -44.5 16.5t-18.5 42t11 39t27.5 13.5t23.5 -7q-17 -21 -17 -51.5t29 -30.5q19 0 37 19t18 50q0 41 -47 50z" />
    <glyph glyph-name="onesuperior" unicode="&#xb9;" horiz-adv-x="292" 
d="M157 522q0 1 1 5q0 8 -11 8l-73 -4l4 19q118 18 154 33q-13 -27 -24 -78q-56 -261 -56 -267.5t11 -6.5h46l-4 -18h-198l4 18h70q13 0 17 14z" />
    <glyph glyph-name="ordmasculine" unicode="&#xba;" horiz-adv-x="346" 
d="M94 399.5q-24 24.5 -24 79.5t40 112t107 57q41 0 65 -24.5t24 -68.5q0 -66 -40 -123t-107 -57q-41 0 -65 24.5zM215 635q-31 0 -55 -33q-44 -59 -44 -140q0 -35 12.5 -54.5t38.5 -19.5t49 33q44 61 44 137.5t-45 76.5z" />
    <glyph glyph-name="guillemotright" unicode="&#xbb;" horiz-adv-x="375" 
d="M219 237l-3 -12l-188 -171l-12 14l124 163l-55 163l18 14zM361 237l-3 -12l-188 -171l-12 14l124 163l-55 163l18 14z" />
    <glyph glyph-name="onequarter" unicode="&#xbc;" horiz-adv-x="779" 
d="M178 522q0 1 1 5q0 8 -11 8l-73 -4l4 19q118 18 154 33q-13 -27 -24 -78q-56 -261 -56 -267.5t11 -6.5h46l-4 -18h-198l4 18h70q14 0 17 14zM647 88l-13 -60q0 -10 11 -10h39l-4 -18h-158l4 18h38q14 0 16 12l13 58h-155l220 270h46l-52 -246h22q12 0 16 14l4 17h17
l-19 -86h-17q4 18 4 20q0 11 -10 11h-22zM488 112h110l39 182zM278 -74h-31l249 722h32z" />
    <glyph glyph-name="onehalf" unicode="&#xbd;" horiz-adv-x="779" 
d="M178 522q0 1 1 5q0 8 -11 8l-73 -4l4 19q118 18 154 33q-13 -27 -24 -78q-56 -261 -56 -267.5t11 -6.5h46l-4 -18h-198l4 18h70q14 0 17 14zM684 298q0 49 -47 49q-25 0 -40 -22t-15 -50q0 -6 2 -16q-14 -10 -35.5 -10t-21.5 24q0 37 33 65t83 28t74.5 -19.5t24.5 -49.5
q0 -29 -23 -60q-24 -33 -55.5 -63t-35.5 -34l-97 -95h123q10 0 14 11l19 57h19l-7 -33q-8 -36 -12 -88q-28 8 -72 8h-163l162 161q36 36 53 74.5t17 62.5zM278 -74h-31l249 722h32z" />
    <glyph glyph-name="threequarters" unicode="&#xbe;" horiz-adv-x="779" 
d="M98 388l2 17l27 5q46 8 72.5 41.5t26.5 71t-34 37.5q-21 0 -34.5 -17.5t-13.5 -35t3 -28.5q-16 -13 -36.5 -13t-20.5 26q0 41 33.5 64t70 23t62 -17.5t25.5 -47t-24.5 -60t-64.5 -46.5q34 -6 52 -26.5t18 -47.5q0 -50 -43.5 -89.5t-107.5 -39.5q-41 0 -60.5 17t-19.5 42
t9.5 42t27.5 17t30 -12q-19 -25 -19 -51q0 -35 37 -35t63 32.5t26 67.5q0 67 -74 67q-14 0 -33 -4zM647 88l-13 -60q0 -10 11 -10h39l-4 -18h-158l4 18h38q14 0 16 12l13 58h-155l220 270h46l-52 -246h22q12 0 16 14l4 17h17l-19 -86h-17q4 18 4 20q0 11 -10 11h-22z
M488 112h110l39 182zM278 -74h-31l249 722h32z" />
    <glyph glyph-name="questiondown" unicode="&#xbf;" horiz-adv-x="279" 
d="M53 -189q-49 0 -83.5 28t-34.5 71t23 76.5t55.5 59.5t64.5 51q79 60 79 116q0 30 -21 62l15 12q46 -53 46 -100q0 -59 -71 -121q-30 -25 -60 -51q-71 -63 -71 -117q0 -31 18.5 -48.5t43.5 -17.5q47 0 73 33.5t26 80.5q0 13 -3 25q17 15 46 15q23 0 23 -33
q0 -57 -46.5 -99.5t-122.5 -42.5zM243 396q0 -20 -14.5 -34t-33.5 -14t-33.5 14t-14.5 34t14.5 34t33.5 14t33.5 -14t14.5 -34z" />
    <glyph glyph-name="Agrave" unicode="&#xc0;" horiz-adv-x="510" 
d="M361 18l-27 193h-221l-108 -193h62l-3 -18h-144l4 18h35q14 0 21 14l336 598h32l82 -598q2 -14 15 -14h35l-3 -18h-181l3 18h62zM291 528l-163 -289h202zM422 687l-131 77q-27 15 -27 40q0 14 8 23.5t23.5 9.5t28.5 -14l111 -120z" />
    <glyph glyph-name="Aacute" unicode="&#xc1;" horiz-adv-x="510" 
d="M361 18l-27 193h-221l-108 -193h62l-3 -18h-144l4 18h35q14 0 21 14l336 598h32l82 -598q2 -14 15 -14h35l-3 -18h-181l3 18h62zM291 528l-163 -289h202zM407 764l-131 -77l-13 16l111 120q13 14 28.5 14t23.5 -9.5t8 -23.5q0 -25 -27 -40z" />
    <glyph glyph-name="Acircumflex" unicode="&#xc2;" horiz-adv-x="510" 
d="M361 18l-27 193h-221l-108 -193h62l-3 -18h-144l4 18h35q14 0 21 14l336 598h32l82 -598q2 -14 15 -14h35l-3 -18h-181l3 18h62zM291 528l-163 -289h202zM435 687l-70 85l-102 -85l-13 16l85 112q18 22 40.5 22t31.5 -23l44 -118z" />
    <glyph glyph-name="Atilde" unicode="&#xc3;" horiz-adv-x="510" 
d="M361 18l-27 193h-221l-108 -193h62l-3 -18h-144l4 18h35q14 0 21 14l336 598h32l82 -598q2 -14 15 -14h35l-3 -18h-181l3 18h62zM291 528l-163 -289h202zM471 832l18 -7q-22 -55 -43.5 -76t-40.5 -21t-51 11.5t-49 11.5t-29.5 -9t-29.5 -36l-17 7q37 96 87 96
q14 0 46 -11.5t50 -11.5t30 9.5t29 36.5z" />
    <glyph glyph-name="Adieresis" unicode="&#xc4;" horiz-adv-x="510" 
d="M361 18l-27 193h-221l-108 -193h62l-3 -18h-144l4 18h35q14 0 21 14l336 598h32l82 -598q2 -14 15 -14h35l-3 -18h-181l3 18h62zM291 528l-163 -289h202zM227 774q0 19 13 32t32 13t32 -13t13 -32t-13 -32t-32 -13t-32 13t-13 32zM387 774q0 19 13 32t32 13t32 -13
t13 -32t-13 -32t-32 -13t-32 13t-13 32z" />
    <glyph glyph-name="Aring" unicode="&#xc5;" horiz-adv-x="510" 
d="M361 18l-27 193h-221l-108 -193h62l-3 -18h-144l4 18h35q14 0 21 14l336 598h32l82 -598q2 -14 15 -14h35l-3 -18h-181l3 18h62zM291 528l-163 -289h202zM297 707.5q-19 16.5 -19 52t30.5 67t67.5 31.5q75 0 75 -63q0 -47 -31 -75.5t-67.5 -28.5t-55.5 16.5zM337 809.5
q-15 -29.5 -15 -64.5t28 -35q19 0 38.5 24t19.5 54q0 51 -28 51t-43 -29.5z" />
    <glyph glyph-name="AE" unicode="&#xc6;" horiz-adv-x="711" 
d="M366 286l-56 -263h221q24 0 31 22l42 122h22l-10 -47q-19 -89 -19 -129q-29 9 -103 9h-315l3 18h46q13 0 16 15l53 253h-184l-191 -268h62l-3 -18h-146l4 18h34q11 0 21 14l405 560q7 9 7 14.5t-7 5.5h-33l3 18h344q76 0 108 9q-15 -35 -36 -129l-10 -47h-22l13 127
q0 17 -22 17h-211l-62 -293h202q10 1 14 14l20 62h17l-39 -180h-17l9 62q0 14 -11 14h-200zM345 607l-212 -293h170l62 293h-20z" />
    <glyph glyph-name="Ccedilla" unicode="&#xc7;" horiz-adv-x="549" 
d="M437 14l1 8q0 13 -11 13q-8 0 -31 -11q-69 -36 -131 -36q-99 0 -157 60t-58 168q0 73 24 147t67.5 137t112.5 102.5t150 39.5q62 0 116 -36q18 -11 26 -11q12 0 19 21l6 20h18l-37 -173h-17q1 8 1 23q0 65 -38.5 96t-103.5 31t-120 -42t-88 -105q-67 -132 -67 -262
q0 -89 39 -138t108 -49t125 36.5t81 113.5h17l-35 -167h-18zM244 0h16l-19 -46q31 -6 47 -26t16 -50.5t-30 -62t-80 -31.5q-26 0 -44.5 16.5t-18.5 42t11 39t27.5 13.5t23.5 -7q-17 -21 -17 -51.5t29 -30.5q19 0 37 19t18 50q0 41 -47 50z" />
    <glyph glyph-name="Egrave" unicode="&#xc8;" horiz-adv-x="542" 
d="M143 630h301q76 0 108 9q-15 -35 -36 -129l-10 -47h-22l13 127q0 17 -22 17h-211l-59 -278h202q10 1 14 14l20 62h17l-39 -180h-17l9 62q0 14 -11 14h-200l-59 -278h221q24 0 31 22l42 122h22l-10 -47q-19 -89 -19 -129q-29 9 -103 9h-315l3 18h46q13 0 16 15
q120 568 120 573.5t-11 5.5h-44zM449 687l-131 77q-27 15 -27 40q0 14 8 23.5t23.5 9.5t28.5 -14l111 -120z" />
    <glyph glyph-name="Eacute" unicode="&#xc9;" horiz-adv-x="542" 
d="M143 630h301q76 0 108 9q-15 -35 -36 -129l-10 -47h-22l13 127q0 17 -22 17h-211l-59 -278h202q10 1 14 14l20 62h17l-39 -180h-17l9 62q0 14 -11 14h-200l-59 -278h221q24 0 31 22l42 122h22l-10 -47q-19 -89 -19 -129q-29 9 -103 9h-315l3 18h46q13 0 16 15
q120 568 120 573.5t-11 5.5h-44zM459 764l-131 -77l-13 16l111 120q13 14 28.5 14t23.5 -9.5t8 -23.5q0 -25 -27 -40z" />
    <glyph glyph-name="Ecircumflex" unicode="&#xca;" horiz-adv-x="542" 
d="M143 630h301q76 0 108 9q-15 -35 -36 -129l-10 -47h-22l13 127q0 17 -22 17h-211l-59 -278h202q10 1 14 14l20 62h17l-39 -180h-17l9 62q0 14 -11 14h-200l-59 -278h221q24 0 31 22l42 122h22l-10 -47q-19 -89 -19 -129q-29 9 -103 9h-315l3 18h46q13 0 16 15
q120 568 120 573.5t-11 5.5h-44zM472 687l-70 85l-102 -85l-13 16l85 112q18 22 40.5 22t31.5 -23l44 -118z" />
    <glyph glyph-name="Edieresis" unicode="&#xcb;" horiz-adv-x="542" 
d="M143 630h301q76 0 108 9q-15 -35 -36 -129l-10 -47h-22l13 127q0 17 -22 17h-211l-59 -278h202q10 1 14 14l20 62h17l-39 -180h-17l9 62q0 14 -11 14h-200l-59 -278h221q24 0 31 22l42 122h22l-10 -47q-19 -89 -19 -129q-29 9 -103 9h-315l3 18h46q13 0 16 15
q120 568 120 573.5t-11 5.5h-44zM277 774q0 19 13 32t32 13t32 -13t13 -32t-13 -32t-32 -13t-32 13t-13 32zM437 774q0 19 13 32t32 13t32 -13t13 -32t-13 -32t-32 -13t-32 13t-13 32z" />
    <glyph glyph-name="Igrave" unicode="&#xcc;" horiz-adv-x="307" 
d="M262 598l-120 -570q0 -10 11 -10h44l-3 -18h-184l3 18h46q13 0 16 15q120 568 120 573.5t-11 5.5h-44l3 18h184l-3 -18h-45q-13 0 -17 -14zM333 687l-131 77q-27 15 -27 40q0 14 8 23.5t23.5 9.5t28.5 -14l111 -120z" />
    <glyph glyph-name="Iacute" unicode="&#xcd;" horiz-adv-x="307" 
d="M262 598l-120 -570q0 -10 11 -10h44l-3 -18h-184l3 18h46q13 0 16 15q120 568 120 573.5t-11 5.5h-44l3 18h184l-3 -18h-45q-13 0 -17 -14zM318 764l-131 -77l-13 16l111 120q13 14 28.5 14t23.5 -9.5t8 -23.5q0 -25 -27 -40z" />
    <glyph glyph-name="Icircumflex" unicode="&#xce;" horiz-adv-x="307" 
d="M262 598l-120 -570q0 -10 11 -10h44l-3 -18h-184l3 18h46q13 0 16 15q120 568 120 573.5t-11 5.5h-44l3 18h184l-3 -18h-45q-13 0 -17 -14zM330 687l-70 85l-102 -85l-13 16l85 112q18 22 40.5 22t31.5 -23l44 -118z" />
    <glyph glyph-name="Idieresis" unicode="&#xcf;" horiz-adv-x="307" 
d="M262 598l-120 -570q0 -10 11 -10h44l-3 -18h-184l3 18h46q13 0 16 15q120 568 120 573.5t-11 5.5h-44l3 18h184l-3 -18h-45q-13 0 -17 -14zM136 774q0 19 13 32t32 13t32 -13t13 -32t-13 -32t-32 -13t-32 13t-13 32zM296 774q0 19 13 32t32 13t32 -13t13 -32t-13 -32
t-32 -13t-32 13t-13 32z" />
    <glyph glyph-name="Eth" unicode="&#xd0;" horiz-adv-x="611" 
d="M379 607h-115l-123 -584h116q64 0 118 40t87 101q68 127 68 253q0 90 -41.5 140t-109.5 50zM143 630h242q100 0 158 -58.5t58 -163.5q0 -71 -24.5 -142.5t-67.5 -131t-110.5 -97t-146.5 -37.5h-242l3 18h46q13 0 16 15q120 568 120 573.5t-11 5.5h-44zM49 295l9 40h329
l-9 -40h-329z" />
    <glyph glyph-name="Ntilde" unicode="&#xd1;" horiz-adv-x="639" 
d="M273 630l199 -505q101 478 101 482.5t-11 4.5h-44l3 18h148l-3 -18h-45q-13 0 -17 -14l-126 -598h-30l-234 587q-117 -556 -117 -562.5t11 -6.5h44l-3 -18h-149l3 18h46q13 0 16 15q120 568 120 573.5t-11 5.5h-44l3 18h140zM545 832l18 -7q-22 -55 -43.5 -76t-40.5 -21
t-51 11.5t-49.5 11.5t-29.5 -9t-29 -36l-17 7q37 96 87 96q14 0 46 -11.5t50 -11.5t30 9.5t29 36.5z" />
    <glyph glyph-name="Ograve" unicode="&#xd2;" horiz-adv-x="627" 
d="M280 616q58 26 123 26q99 0 156.5 -59.5t57.5 -167.5q0 -73 -24 -147.5t-67 -137.5t-112 -102.5t-159 -39.5t-147.5 60t-57.5 174t62.5 230t167.5 164zM400 616q-66 0 -122 -42.5t-89 -107.5q-69 -134 -69 -260q0 -91 39.5 -141.5t106 -50.5t122.5 42.5t90 106.5
q69 133 69 260q0 91 -40.5 142t-106.5 51zM496 687l-131 77q-27 15 -27 40q0 14 8 23.5t23.5 9.5t28.5 -14l111 -120z" />
    <glyph glyph-name="Oacute" unicode="&#xd3;" horiz-adv-x="627" 
d="M280 616q58 26 123 26q99 0 156.5 -59.5t57.5 -167.5q0 -73 -24 -147.5t-67 -137.5t-112 -102.5t-159 -39.5t-147.5 60t-57.5 174t62.5 230t167.5 164zM400 616q-66 0 -122 -42.5t-89 -107.5q-69 -134 -69 -260q0 -91 39.5 -141.5t106 -50.5t122.5 42.5t90 106.5
q69 133 69 260q0 91 -40.5 142t-106.5 51zM481 764l-131 -77l-13 16l111 120q13 14 28.5 14t23.5 -9.5t8 -23.5q0 -25 -27 -40z" />
    <glyph glyph-name="Ocircumflex" unicode="&#xd4;" horiz-adv-x="627" 
d="M280 616q58 26 123 26q99 0 156.5 -59.5t57.5 -167.5q0 -73 -24 -147.5t-67 -137.5t-112 -102.5t-159 -39.5t-147.5 60t-57.5 174t62.5 230t167.5 164zM400 616q-66 0 -122 -42.5t-89 -107.5q-69 -134 -69 -260q0 -91 39.5 -141.5t106 -50.5t122.5 42.5t90 106.5
q69 133 69 260q0 91 -40.5 142t-106.5 51zM494 687l-70 85l-102 -85l-13 16l85 112q18 22 40.5 22t31.5 -23l44 -118z" />
    <glyph glyph-name="Otilde" unicode="&#xd5;" horiz-adv-x="627" 
d="M280 616q58 26 123 26q99 0 156.5 -59.5t57.5 -167.5q0 -73 -24 -147.5t-67 -137.5t-112 -102.5t-159 -39.5t-147.5 60t-57.5 174t62.5 230t167.5 164zM400 616q-66 0 -122 -42.5t-89 -107.5q-69 -134 -69 -260q0 -91 39.5 -141.5t106 -50.5t122.5 42.5t90 106.5
q69 133 69 260q0 91 -40.5 142t-106.5 51zM537 832l18 -7q-22 -55 -43.5 -76t-40.5 -21t-51 11.5t-49.5 11.5t-29.5 -9t-29 -36l-17 7q37 96 87 96q14 0 46 -11.5t50 -11.5t30 9.5t29 36.5z" />
    <glyph glyph-name="Odieresis" unicode="&#xd6;" horiz-adv-x="627" 
d="M280 616q58 26 123 26q99 0 156.5 -59.5t57.5 -167.5q0 -73 -24 -147.5t-67 -137.5t-112 -102.5t-159 -39.5t-147.5 60t-57.5 174t62.5 230t167.5 164zM400 616q-66 0 -122 -42.5t-89 -107.5q-69 -134 -69 -260q0 -91 39.5 -141.5t106 -50.5t122.5 42.5t90 106.5
q69 133 69 260q0 91 -40.5 142t-106.5 51zM302 774q0 19 13 32t32 13t32 -13t13 -32t-13 -32t-32 -13t-32 13t-13 32zM462 774q0 19 13 32t32 13t32 -13t13 -32t-13 -32t-32 -13t-32 13t-13 32z" />
    <glyph glyph-name="multiply" unicode="&#xd7;" 
d="M178 363l95 -130l152 131l27 -38l-151 -130l96 -130l-44 -38l-96 130l-150 -129l-28 37l151 130l-96 130z" />
    <glyph glyph-name="Oslash" unicode="&#xd8;" horiz-adv-x="627" 
d="M280 616q58 26 123 26q99 0 156.5 -59.5t57.5 -167.5q0 -73 -24 -147.5t-67 -137.5t-112 -102.5t-159 -39.5t-147.5 60t-57.5 174t62.5 230t167.5 164zM400 616q-66 0 -122 -42.5t-89 -107.5q-69 -134 -69 -260q0 -91 39.5 -141.5t106 -50.5t122.5 42.5t90 106.5
q69 133 69 260q0 91 -40.5 142t-106.5 51zM225 -80h-33l249 794h34z" />
    <glyph glyph-name="Ugrave" unicode="&#xd9;" horiz-adv-x="609" 
d="M89 195l87 409q0 8 -11 8h-45l3 18h184l-3 -18h-45q-13 0 -17 -14l-87 -410q-6 -28 -6 -51q0 -59 35 -87.5t93 -28.5q55 0 115 38q64 41 84 135l86 407q0 11 -10 11h-45l3 18h149l-3 -18h-45q-13 0 -17 -14l-85 -403q-22 -104 -89.5 -155.5t-156.5 -51.5q-181 0 -181 147
q0 29 7 60zM490 687l-131 77q-27 15 -27 40q0 14 8 23.5t23.5 9.5t28.5 -14l111 -120z" />
    <glyph glyph-name="Uacute" unicode="&#xda;" horiz-adv-x="609" 
d="M89 195l87 409q0 8 -11 8h-45l3 18h184l-3 -18h-45q-13 0 -17 -14l-87 -410q-6 -28 -6 -51q0 -59 35 -87.5t93 -28.5q55 0 115 38q64 41 84 135l86 407q0 11 -10 11h-45l3 18h149l-3 -18h-45q-13 0 -17 -14l-85 -403q-22 -104 -89.5 -155.5t-156.5 -51.5q-181 0 -181 147
q0 29 7 60zM497 764l-131 -77l-13 16l111 120q13 14 28.5 14t23.5 -9.5t8 -23.5q0 -25 -27 -40z" />
    <glyph glyph-name="Ucircumflex" unicode="&#xdb;" horiz-adv-x="609" 
d="M89 195l87 409q0 8 -11 8h-45l3 18h184l-3 -18h-45q-13 0 -17 -14l-87 -410q-6 -28 -6 -51q0 -59 35 -87.5t93 -28.5q55 0 115 38q64 41 84 135l86 407q0 11 -10 11h-45l3 18h149l-3 -18h-45q-13 0 -17 -14l-85 -403q-22 -104 -89.5 -155.5t-156.5 -51.5q-181 0 -181 147
q0 29 7 60zM510 687l-70 85l-102 -85l-13 16l85 112q18 22 40.5 22t31.5 -23l44 -118z" />
    <glyph glyph-name="Udieresis" unicode="&#xdc;" horiz-adv-x="609" 
d="M89 195l87 409q0 8 -11 8h-45l3 18h184l-3 -18h-45q-13 0 -17 -14l-87 -410q-6 -28 -6 -51q0 -59 35 -87.5t93 -28.5q55 0 115 38q64 41 84 135l86 407q0 11 -10 11h-45l3 18h149l-3 -18h-45q-13 0 -17 -14l-85 -403q-22 -104 -89.5 -155.5t-156.5 -51.5q-181 0 -181 147
q0 29 7 60zM317 774q0 19 13 32t32 13t32 -13t13 -32t-13 -32t-32 -13t-32 13t-13 32zM477 774q0 19 13 32t32 13t32 -13t13 -32t-13 -32t-32 -13t-32 13t-13 32z" />
    <glyph glyph-name="Yacute" unicode="&#xdd;" horiz-adv-x="455" 
d="M247 190l-44 -5l-92 413q-3 14 -15 14h-35l3 18h165l-3 -18h-47l80 -355l211 355h-47l3 18h129l-3 -18h-35q-12 0 -21 -14zM201 242l64 -17q-41 -194 -41 -200.5t11 -6.5h66l-3 -18h-228l3 18h68q13 0 16 15zM423 764l-131 -77l-13 16l111 120q13 14 28.5 14t23.5 -9.5
t8 -23.5q0 -25 -27 -40z" />
    <glyph glyph-name="Thorn" unicode="&#xde;" horiz-adv-x="485" 
d="M162 125l-20 -97q0 -10 11 -10h44l-3 -18h-184l3 18h46q13 0 16 15q120 568 120 573.5t-11 5.5h-44l3 18h184l-3 -18h-45q-13 0 -17 -14l-20 -94h97q68 0 112 -38t44 -105q0 -106 -73 -171t-163 -65h-97zM328 481h-91l-71 -333h94q72 0 120.5 70t48.5 147q0 50 -25.5 83
t-75.5 33z" />
    <glyph glyph-name="germandbls" unicode="&#xdf;" horiz-adv-x="483" 
d="M423 490q18 33 18 67.5t-22 57t-60 22.5q-102 0 -137 -166l-94 -439q-55 -260 -173 -260q-38 0 -59 23t-21 51.5t11.5 51t36.5 22.5t36 -13q-13 -10 -21.5 -30t-8.5 -39q0 -43 36 -43q40 0 61.5 64t57.5 247l58 296q23 118 78 188t134.5 70t111.5 -31.5t32 -69.5
t-27.5 -76.5t-60.5 -66t-60.5 -58.5t-27.5 -53t34 -51l45 -38q46 -39 46 -79q0 -54 -47 -101.5t-118 -47.5q-43 0 -70.5 19.5t-27.5 52.5t12 55.5t34.5 22.5t31.5 -14q-24 -41 -24 -70q0 -44 49 -44q40 0 71.5 28.5t31.5 58t-36 60.5l-58 49q-32 27 -32 56t18 58.5t44 56
t52.5 53.5t44.5 60zM52 396l5 19h147l-5 -19h-147z" />
    <glyph glyph-name="agrave" unicode="&#xe0;" horiz-adv-x="500" 
d="M379 202q-31 -119 -31 -152.5t25 -33.5q19 0 41 25.5t38 72.5l16 -4q-43 -122 -112 -122q-62 0 -62 75q0 15 5 48h-5q-62 -123 -144 -123q-47 0 -78.5 41.5t-31.5 102t16 112.5t45 97.5t77 74t105 28.5q74 0 117 -63l31 54l14 -10q-35 -104 -66 -223zM174 18q42 0 85 65
q49 75 91 245q9 40 14 58q-35 34 -80.5 34t-81 -31t-55.5 -78q-41 -96 -41 -181q0 -56 18.5 -84t49.5 -28zM371 489l-131 77q-27 15 -27 40q0 14 8 23.5t23.5 9.5t28.5 -14l111 -120z" />
    <glyph glyph-name="aacute" unicode="&#xe1;" horiz-adv-x="500" 
d="M379 202q-31 -119 -31 -152.5t25 -33.5q19 0 41 25.5t38 72.5l16 -4q-43 -122 -112 -122q-62 0 -62 75q0 15 5 48h-5q-62 -123 -144 -123q-47 0 -78.5 41.5t-31.5 102t16 112.5t45 97.5t77 74t105 28.5q74 0 117 -63l31 54l14 -10q-35 -104 -66 -223zM174 18q42 0 85 65
q49 75 91 245q9 40 14 58q-35 34 -80.5 34t-81 -31t-55.5 -78q-41 -96 -41 -181q0 -56 18.5 -84t49.5 -28zM378 566l-131 -77l-13 16l111 120q13 14 28.5 14t23.5 -9.5t8 -23.5q0 -25 -27 -40z" />
    <glyph glyph-name="acircumflex" unicode="&#xe2;" horiz-adv-x="500" 
d="M379 202q-31 -119 -31 -152.5t25 -33.5q19 0 41 25.5t38 72.5l16 -4q-43 -122 -112 -122q-62 0 -62 75q0 15 5 48h-5q-62 -123 -144 -123q-47 0 -78.5 41.5t-31.5 102t16 112.5t45 97.5t77 74t105 28.5q74 0 117 -63l31 54l14 -10q-35 -104 -66 -223zM174 18q42 0 85 65
q49 75 91 245q9 40 14 58q-35 34 -80.5 34t-81 -31t-55.5 -78q-41 -96 -41 -181q0 -56 18.5 -84t49.5 -28zM386 489l-70 85l-102 -85l-13 16l85 112q18 22 40.5 22t31.5 -23l44 -118z" />
    <glyph glyph-name="atilde" unicode="&#xe3;" horiz-adv-x="500" 
d="M379 202q-31 -119 -31 -152.5t25 -33.5q19 0 41 25.5t38 72.5l16 -4q-43 -122 -112 -122q-62 0 -62 75q0 15 5 48h-5q-62 -123 -144 -123q-47 0 -78.5 41.5t-31.5 102t16 112.5t45 97.5t77 74t105 28.5q74 0 117 -63l31 54l14 -10q-35 -104 -66 -223zM174 18q42 0 85 65
q49 75 91 245q9 40 14 58q-35 34 -80.5 34t-81 -31t-55.5 -78q-41 -96 -41 -181q0 -56 18.5 -84t49.5 -28zM432 634l18 -7q-22 -55 -43.5 -76t-40.5 -21t-51 11.5t-49.5 11.5t-29.5 -9t-29 -36l-17 7q37 96 87 96q14 0 46 -11.5t50 -11.5t30 9.5t29 36.5z" />
    <glyph glyph-name="adieresis" unicode="&#xe4;" horiz-adv-x="500" 
d="M379 202q-31 -119 -31 -152.5t25 -33.5q19 0 41 25.5t38 72.5l16 -4q-43 -122 -112 -122q-62 0 -62 75q0 15 5 48h-5q-62 -123 -144 -123q-47 0 -78.5 41.5t-31.5 102t16 112.5t45 97.5t77 74t105 28.5q74 0 117 -63l31 54l14 -10q-35 -104 -66 -223zM174 18q42 0 85 65
q49 75 91 245q9 40 14 58q-35 34 -80.5 34t-81 -31t-55.5 -78q-41 -96 -41 -181q0 -56 18.5 -84t49.5 -28zM190 576q0 19 13 32t32 13t32 -13t13 -32t-13 -32t-32 -13t-32 13t-13 32zM350 576q0 19 13 32t32 13t32 -13t13 -32t-13 -32t-32 -13t-32 13t-13 32z" />
    <glyph glyph-name="aring" unicode="&#xe5;" horiz-adv-x="500" 
d="M379 202q-31 -119 -31 -152.5t25 -33.5q19 0 41 25.5t38 72.5l16 -4q-43 -122 -112 -122q-62 0 -62 75q0 15 5 48h-5q-62 -123 -144 -123q-47 0 -78.5 41.5t-31.5 102t16 112.5t45 97.5t77 74t105 28.5q74 0 117 -63l31 54l14 -10q-35 -104 -66 -223zM174 18q42 0 85 65
q49 75 91 245q9 40 14 58q-35 34 -80.5 34t-81 -31t-55.5 -78q-41 -96 -41 -181q0 -56 18.5 -84t49.5 -28zM249 509.5q-19 16.5 -19 52t30.5 67t67.5 31.5q75 0 75 -63q0 -47 -31 -75.5t-67.5 -28.5t-55.5 16.5zM289 611.5q-15 -29.5 -15 -64.5t28 -35q19 0 38.5 24t19.5 54
q0 51 -28 51t-43 -29.5z" />
    <glyph glyph-name="ae" unicode="&#xe6;" horiz-adv-x="669" 
d="M632.5 418.5q26.5 -25.5 26.5 -73t-37 -82.5q-63 -60 -187 -60q-28 0 -49 3q-8 -37 -8 -84.5t21 -78.5t59 -31q99 0 145 108l16 -4q-24 -61 -69.5 -94.5t-102.5 -33.5t-96 42t-39 117q-64 -159 -162 -159q-47 0 -78.5 41.5t-31.5 102t16 112.5t45 97.5t77 74t105.5 28.5
t100.5 -43l31 34l14 -10l-15 -37q61 56 139 56q53 0 79.5 -25.5zM124.5 46q18.5 -28 50.5 -28t64.5 39.5t56.5 98.5q48 115 68 230q-35 34 -80.5 34t-81 -31t-55.5 -78q-41 -96 -41 -181q0 -56 18.5 -84zM548 420q-59 0 -99.5 -57.5t-58.5 -137.5q26 -2 39 -2q83 0 128.5 42
t45.5 92q0 27 -14.5 45t-40.5 18z" />
    <glyph glyph-name="ccedilla" unicode="&#xe7;" horiz-adv-x="397" 
d="M276 420q-41 0 -75.5 -31t-54.5 -77q-40 -97 -40 -168q0 -132 80 -132q99 0 145 108l16 -4q-24 -61 -69.5 -94.5t-102.5 -33.5t-96 42t-39 113t27 137.5t84 115t130 48.5q50 0 75.5 -25.5t25.5 -61t-12.5 -63.5t-39 -28t-39.5 16q29 44 29 86q0 52 -44 52zM158 0h16
l-19 -46q31 -6 47 -26t16 -50.5t-30 -62t-80 -31.5q-26 0 -44.5 16.5t-18.5 42t11 39t27.5 13.5t23.5 -7q-17 -21 -17 -51.5t29 -30.5q19 0 37 19t18 50q0 41 -47 50z" />
    <glyph glyph-name="egrave" unicode="&#xe8;" horiz-adv-x="397" 
d="M360.5 418.5q26.5 -25.5 26.5 -73t-37 -82.5q-63 -60 -187 -60q-37 0 -64 6v19q35 -5 58 -5q83 0 128.5 42t45.5 92q0 27 -14.5 45t-48 18t-68 -31t-54.5 -77q-40 -97 -40 -168q0 -132 80 -132q99 0 145 108l16 -4q-24 -61 -69.5 -94.5t-102.5 -33.5t-96 42t-39 113
t27 137.5t84 115t130 48.5q53 0 79.5 -25.5zM357 489l-131 77q-27 15 -27 40q0 14 8 23.5t23.5 9.5t28.5 -14l111 -120z" />
    <glyph glyph-name="eacute" unicode="&#xe9;" horiz-adv-x="397" 
d="M360.5 418.5q26.5 -25.5 26.5 -73t-37 -82.5q-63 -60 -187 -60q-37 0 -64 6v19q35 -5 58 -5q83 0 128.5 42t45.5 92q0 27 -14.5 45t-48 18t-68 -31t-54.5 -77q-40 -97 -40 -168q0 -132 80 -132q99 0 145 108l16 -4q-24 -61 -69.5 -94.5t-102.5 -33.5t-96 42t-39 113
t27 137.5t84 115t130 48.5q53 0 79.5 -25.5zM354 566l-131 -77l-13 16l111 120q13 14 28.5 14t23.5 -9.5t8 -23.5q0 -25 -27 -40z" />
    <glyph glyph-name="ecircumflex" unicode="&#xea;" horiz-adv-x="397" 
d="M360.5 418.5q26.5 -25.5 26.5 -73t-37 -82.5q-63 -60 -187 -60q-37 0 -64 6v19q35 -5 58 -5q83 0 128.5 42t45.5 92q0 27 -14.5 45t-48 18t-68 -31t-54.5 -77q-40 -97 -40 -168q0 -132 80 -132q99 0 145 108l16 -4q-24 -61 -69.5 -94.5t-102.5 -33.5t-96 42t-39 113
t27 137.5t84 115t130 48.5q53 0 79.5 -25.5zM367 489l-70 85l-102 -85l-13 16l85 112q18 22 40.5 22t31.5 -23l44 -118z" />
    <glyph glyph-name="edieresis" unicode="&#xeb;" horiz-adv-x="397" 
d="M360.5 418.5q26.5 -25.5 26.5 -73t-37 -82.5q-63 -60 -187 -60q-37 0 -64 6v19q35 -5 58 -5q83 0 128.5 42t45.5 92q0 27 -14.5 45t-48 18t-68 -31t-54.5 -77q-40 -97 -40 -168q0 -132 80 -132q99 0 145 108l16 -4q-24 -61 -69.5 -94.5t-102.5 -33.5t-96 42t-39 113
t27 137.5t84 115t130 48.5q53 0 79.5 -25.5zM173 576q0 19 13 32t32 13t32 -13t13 -32t-13 -32t-32 -13t-32 13t-13 32zM333 576q0 19 13 32t32 13t32 -13t13 -32t-13 -32t-32 -13t-32 13t-13 32z" />
    <glyph glyph-name="igrave" unicode="&#xec;" horiz-adv-x="276" 
d="M70 63q0 53 73 335l-64 -5l-1 17q69 9 129 25l14 -10q-35 -104 -66 -223t-31 -152.5t25 -33.5q19 0 41 25.5t38 72.5l16 -4q-43 -122 -112 -122q-62 0 -62 75zM263 489l-131 77q-27 15 -27 40q0 14 8 23.5t23.5 9.5t28.5 -14l111 -120z" />
    <glyph glyph-name="iacute" unicode="&#xed;" horiz-adv-x="276" 
d="M70 63q0 53 73 335l-64 -5l-1 17q69 9 129 25l14 -10q-35 -104 -66 -223t-31 -152.5t25 -33.5q19 0 41 25.5t38 72.5l16 -4q-43 -122 -112 -122q-62 0 -62 75zM263 566l-131 -77l-13 16l111 120q13 14 28.5 14t23.5 -9.5t8 -23.5q0 -25 -27 -40z" />
    <glyph glyph-name="icircumflex" unicode="&#xee;" horiz-adv-x="276" 
d="M70 63q0 53 73 335l-64 -5l-1 17q69 9 129 25l14 -10q-35 -104 -66 -223t-31 -152.5t25 -33.5q19 0 41 25.5t38 72.5l16 -4q-43 -122 -112 -122q-62 0 -62 75zM275 489l-70 85l-102 -85l-13 16l85 112q18 22 40.5 22t31.5 -23l44 -118z" />
    <glyph glyph-name="idieresis" unicode="&#xef;" horiz-adv-x="276" 
d="M70 63q0 53 73 335l-64 -5l-1 17q69 9 129 25l14 -10q-35 -104 -66 -223t-31 -152.5t25 -33.5q19 0 41 25.5t38 72.5l16 -4q-43 -122 -112 -122q-62 0 -62 75zM71 576q0 19 13 32t32 13t32 -13t13 -32t-13 -32t-32 -13t-32 13t-13 32zM231 576q0 19 13 32t32 13t32 -13
t13 -32t-13 -32t-32 -13t-32 13t-13 32z" />
    <glyph glyph-name="eth" unicode="&#xf0;" horiz-adv-x="470" 
d="M382 373l3 1q-11 192 -161 263l11 23q95 -34 145 -129t50 -220t-63 -224t-170 -99q-70 0 -111 42t-41 118q0 123 74.5 206t152 83t110.5 -64zM339.5 376.5q-22.5 32.5 -61.5 32.5t-73.5 -28.5t-54.5 -71.5q-42 -90 -42 -161.5t24 -104.5t69.5 -33t85.5 50t57.5 111.5
t17.5 117t-22.5 88zM238 488l-15 33l232 112l15 -33z" />
    <glyph glyph-name="ntilde" unicode="&#xf1;" horiz-adv-x="503" 
d="M399.5 195q-48.5 -115 -48.5 -147t25 -32q19 0 41 25.5t38 72.5l16 -4q-43 -122 -112 -122q-62 0 -62 68q0 29 45.5 144t45.5 148q0 63 -46 63q-50 0 -108 -81q-67 -97 -119 -330l-70 -6l98 404l-64 -5l-1 17q69 9 129 25l14 -10q-48 -110 -84 -253h8l16 44
q54 151 117 196q30 20 49.5 26t49 6t50.5 -24t21 -67t-48.5 -158zM450 634l18 -7q-22 -55 -43.5 -76t-40.5 -21t-51 11.5t-49.5 11.5t-29.5 -9t-29 -36l-17 7q37 96 87 96q14 0 46 -11.5t50 -11.5t30 9.5t29 36.5z" />
    <glyph glyph-name="ograve" unicode="&#xf2;" horiz-adv-x="460" 
d="M40 145q0 103 60 197q29 45 76 73.5t107.5 28.5t98.5 -41t38 -112t-26 -138t-82 -116t-126 -49t-108 41t-38 116zM275 422q-54 0 -95.5 -54t-59 -118t-17.5 -119.5t22.5 -88t62 -32.5t74 32t54.5 79q41 96 41 166.5t-22 102.5t-60 32zM377 489l-131 77q-27 15 -27 40
q0 14 8 23.5t23.5 9.5t28.5 -14l111 -120z" />
    <glyph glyph-name="oacute" unicode="&#xf3;" horiz-adv-x="460" 
d="M40 145q0 103 60 197q29 45 76 73.5t107.5 28.5t98.5 -41t38 -112t-26 -138t-82 -116t-126 -49t-108 41t-38 116zM275 422q-54 0 -95.5 -54t-59 -118t-17.5 -119.5t22.5 -88t62 -32.5t74 32t54.5 79q41 96 41 166.5t-22 102.5t-60 32zM375 566l-131 -77l-13 16l111 120
q13 14 28.5 14t23.5 -9.5t8 -23.5q0 -25 -27 -40z" />
    <glyph glyph-name="ocircumflex" unicode="&#xf4;" horiz-adv-x="460" 
d="M40 145q0 103 60 197q29 45 76 73.5t107.5 28.5t98.5 -41t38 -112t-26 -138t-82 -116t-126 -49t-108 41t-38 116zM275 422q-54 0 -95.5 -54t-59 -118t-17.5 -119.5t22.5 -88t62 -32.5t74 32t54.5 79q41 96 41 166.5t-22 102.5t-60 32zM388 489l-70 85l-102 -85l-13 16
l85 112q18 22 40.5 22t31.5 -23l44 -118z" />
    <glyph glyph-name="otilde" unicode="&#xf5;" horiz-adv-x="460" 
d="M40 145q0 103 60 197q29 45 76 73.5t107.5 28.5t98.5 -41t38 -112t-26 -138t-82 -116t-126 -49t-108 41t-38 116zM275 422q-54 0 -95.5 -54t-59 -118t-17.5 -119.5t22.5 -88t62 -32.5t74 32t54.5 79q41 96 41 166.5t-22 102.5t-60 32zM420 634l18 -7q-22 -55 -43.5 -76
t-40.5 -21t-51 11.5t-49.5 11.5t-29.5 -9t-29 -36l-17 7q37 96 87 96q14 0 46 -11.5t50 -11.5t30 9.5t29 36.5z" />
    <glyph glyph-name="odieresis" unicode="&#xf6;" horiz-adv-x="460" 
d="M40 145q0 103 60 197q29 45 76 73.5t107.5 28.5t98.5 -41t38 -112t-26 -138t-82 -116t-126 -49t-108 41t-38 116zM275 422q-54 0 -95.5 -54t-59 -118t-17.5 -119.5t22.5 -88t62 -32.5t74 32t54.5 79q41 96 41 166.5t-22 102.5t-60 32zM195 576q0 19 13 32t32 13t32 -13
t13 -32t-13 -32t-32 -13t-32 13t-13 32zM355 576q0 19 13 32t32 13t32 -13t13 -32t-13 -32t-32 -13t-32 13t-13 32z" />
    <glyph glyph-name="divide" unicode="&#xf7;" 
d="M447 170h-373l11 53h373zM288 66q-3 -26 -21.5 -41.5t-35.5 -15.5t-26.5 10.5t-9.5 29.5t17.5 37.5t36 18.5t29 -11t10.5 -28zM347 345q-3 -26 -20.5 -41.5t-35 -15.5t-27.5 10.5t-10 30t17.5 37.5t36 18t29 -11t10.5 -28z" />
    <glyph glyph-name="oslash" unicode="&#xf8;" horiz-adv-x="460" 
d="M40 145q0 103 60 197q29 45 76 73.5t107.5 28.5t98.5 -41t38 -112t-26 -138t-82 -116t-126 -49t-108 41t-38 116zM275 422q-54 0 -95.5 -54t-59 -118t-17.5 -119.5t22.5 -88t62 -32.5t74 32t54.5 79q41 96 41 166.5t-22 102.5t-60 32zM122 -143h-33l249 722h34z" />
    <glyph glyph-name="ugrave" unicode="&#xf9;" horiz-adv-x="517" 
d="M311 63q0 15 5 48h-5q-64 -123 -148 -123q-90 0 -90 100q0 65 46 241l18 69l-64 -5l-1 17q69 9 129 25l14 -10q-84 -261 -84 -334t55 -73q46 0 90.5 67.5t73.5 181.5l34 131l-64 -5l-1 17q69 9 129 25l14 -10q-35 -104 -66 -223t-31 -152.5t25 -33.5q19 0 41 25.5
t38 72.5l16 -4q-43 -122 -112 -122q-62 0 -62 75zM376 489l-131 77q-27 15 -27 40q0 14 8 23.5t23.5 9.5t28.5 -14l111 -120z" />
    <glyph glyph-name="uacute" unicode="&#xfa;" horiz-adv-x="517" 
d="M311 63q0 15 5 48h-5q-64 -123 -148 -123q-90 0 -90 100q0 65 46 241l18 69l-64 -5l-1 17q69 9 129 25l14 -10q-84 -261 -84 -334t55 -73q46 0 90.5 67.5t73.5 181.5l34 131l-64 -5l-1 17q69 9 129 25l14 -10q-35 -104 -66 -223t-31 -152.5t25 -33.5q19 0 41 25.5
t38 72.5l16 -4q-43 -122 -112 -122q-62 0 -62 75zM388 566l-131 -77l-13 16l111 120q13 14 28.5 14t23.5 -9.5t8 -23.5q0 -25 -27 -40z" />
    <glyph glyph-name="ucircumflex" unicode="&#xfb;" horiz-adv-x="517" 
d="M311 63q0 15 5 48h-5q-64 -123 -148 -123q-90 0 -90 100q0 65 46 241l18 69l-64 -5l-1 17q69 9 129 25l14 -10q-84 -261 -84 -334t55 -73q46 0 90.5 67.5t73.5 181.5l34 131l-64 -5l-1 17q69 9 129 25l14 -10q-35 -104 -66 -223t-31 -152.5t25 -33.5q19 0 41 25.5
t38 72.5l16 -4q-43 -122 -112 -122q-62 0 -62 75zM401 489l-70 85l-102 -85l-13 16l85 112q18 22 40.5 22t31.5 -23l44 -118z" />
    <glyph glyph-name="udieresis" unicode="&#xfc;" horiz-adv-x="517" 
d="M311 63q0 15 5 48h-5q-64 -123 -148 -123q-90 0 -90 100q0 65 46 241l18 69l-64 -5l-1 17q69 9 129 25l14 -10q-84 -261 -84 -334t55 -73q46 0 90.5 67.5t73.5 181.5l34 131l-64 -5l-1 17q69 9 129 25l14 -10q-35 -104 -66 -223t-31 -152.5t25 -33.5q19 0 41 25.5
t38 72.5l16 -4q-43 -122 -112 -122q-62 0 -62 75zM207 576q0 19 13 32t32 13t32 -13t13 -32t-13 -32t-32 -13t-32 13t-13 32zM367 576q0 19 13 32t32 13t32 -13t13 -32t-13 -32t-32 -13t-32 13t-13 32z" />
    <glyph glyph-name="yacute" unicode="&#xfd;" horiz-adv-x="472" 
d="M371 566l-131 -77l-13 16l111 120q13 14 28.5 14t23.5 -9.5t8 -23.5q0 -25 -27 -40zM327.5 114.5q63.5 93.5 63.5 175t-52 133.5q25 21 46 21q39 0 39 -110t-24 -201.5t-62.5 -155.5t-87.5 -111q-95 -94 -193 -94q-50 0 -75.5 23t-25.5 54t12.5 56t37.5 25t41 -14
q-29 -37 -29 -68q0 -50 53 -50q35 0 81 25.5t93 72t86.5 124.5t55.5 169q-33 -87 -88.5 -144t-127.5 -57q-37 0 -59.5 25.5t-22.5 69.5t33.5 154t33.5 144.5t-26 34.5q-19 0 -40 -25.5t-34 -72.5l-17 4q37 122 107 122q65 0 65 -70q0 -28 -31 -139t-31 -146q0 -68 51 -68
q64 0 127.5 93.5z" />
    <glyph glyph-name="thorn" unicode="&#xfe;" horiz-adv-x="476" 
d="M-7 -222l206 842l-64 -5l-1 17q69 9 129 25l14 -10q-71 -207 -139 -475h8l16 44q83 228 190 228q43 0 73.5 -42t30.5 -102t-15.5 -111.5t-44.5 -96t-76 -72.5t-104 -28q-87 0 -136 77l7 17q48 -73 126 -73q45 0 80.5 30t54.5 75q38 92 38 180q0 51 -14.5 79.5t-37.5 28.5
q-47 0 -105.5 -91t-105.5 -284l-60 -247z" />
    <glyph glyph-name="ydieresis" unicode="&#xff;" horiz-adv-x="472" 
d="M327.5 114.5q63.5 93.5 63.5 175t-52 133.5q25 21 46 21q39 0 39 -110t-24 -201.5t-62.5 -155.5t-87.5 -111q-95 -94 -193 -94q-50 0 -75.5 23t-25.5 54t12.5 56t37.5 25t41 -14q-29 -37 -29 -68q0 -50 53 -50q35 0 81 25.5t93 72t86.5 124.5t55.5 169
q-33 -87 -88.5 -144t-127.5 -57q-37 0 -59.5 25.5t-22.5 69.5t33.5 154t33.5 144.5t-26 34.5q-19 0 -40 -25.5t-34 -72.5l-17 4q37 122 107 122q65 0 65 -70q0 -28 -31 -139t-31 -146q0 -68 51 -68q64 0 127.5 93.5zM177 576q0 19 13 32t32 13t32 -13t13 -32t-13 -32
t-32 -13t-32 13t-13 32zM337 576q0 19 13 32t32 13t32 -13t13 -32t-13 -32t-32 -13t-32 13t-13 32z" />
    <glyph glyph-name="dotlessi" unicode="&#x131;" horiz-adv-x="276" 
d="M70 63q0 53 73 335l-64 -5l-1 17q69 9 129 25l14 -10q-35 -104 -66 -223t-31 -152.5t25 -33.5q19 0 41 25.5t38 72.5l16 -4q-43 -122 -112 -122q-62 0 -62 75z" />
    <glyph glyph-name="Lslash" unicode="&#x141;" horiz-adv-x="453" 
d="M38 227l-15 28l308 157l15 -28zM262 598l-121 -575h197q25 0 32 22l41 122h22l-10 -47q-19 -87 -19 -129q-29 9 -103 9h-291l3 18h46q13 0 16 15q120 568 120 573.5t-11 5.5h-44l3 18h184l-3 -18h-45q-13 0 -17 -14z" />
    <glyph glyph-name="lslash" unicode="&#x142;" horiz-adv-x="266" 
d="M43 251l-15 28l214 109l15 -28zM114 49q0 -33 25 -33q19 0 41 25.5t38 72.5l16 -4q-43 -122 -112 -122q-62 0 -62 78.5t131 553.5l-64 -5l-1 17q69 9 129 25l14 -10q-42 -123 -98.5 -333.5t-56.5 -264.5z" />
    <glyph glyph-name="OE" unicode="&#x152;" horiz-adv-x="845" 
d="M569 326l-5 -23q-20 -90 -67.5 -165.5t-115.5 -114.5h284q24 0 31 22l42 122h22l-10 -47q-19 -89 -19 -129q-29 9 -103 9h-300q-43 -12 -79 -12q-92 0 -145.5 60t-53.5 168q0 120 56 232q62 122 158 168q54 26 104.5 26t83.5 -12h295q76 0 108 9q-15 -35 -36 -129
l-10 -47h-22l13 127q0 17 -22 17h-282q81 -59 81 -192q0 -41 -8 -89zM374 616q-60 0 -110.5 -42.5t-80.5 -107.5q-63 -135 -63 -260q0 -91 36 -141.5t96 -50.5t111 42.5t81 106.5q63 134 63 260q0 91 -36.5 142t-96.5 51zM503 301l5 28h202q10 1 14 14l20 62h17l-39 -180
h-17l9 62q0 14 -11 14h-200z" />
    <glyph glyph-name="oe" unicode="&#x153;" horiz-adv-x="698" 
d="M40 145q0 103 60 197q29 45 76 73.5t107.5 28.5t98.5 -41t38 -112t-26 -138t-82 -116t-126 -49t-108 41t-38 116zM275 422q-54 0 -95.5 -54t-59 -118t-17.5 -119.5t22.5 -88t62 -32.5t74 32t54.5 79q41 96 41 166.5t-22 102.5t-60 32zM661.5 418.5q26.5 -25.5 26.5 -73
t-37 -82.5q-63 -60 -187 -60q-37 0 -64 6v19q35 -5 58 -5q83 0 128.5 42t45.5 92q0 27 -14.5 45t-48 18t-68 -31t-53.5 -77q-41 -97 -41 -168q0 -132 80 -132q99 0 145 108l16 -4q-24 -61 -69.5 -94.5t-102.5 -33.5t-96 42t-39 113t27 137.5t84 115t130 48.5
q53 0 79.5 -25.5z" />
    <glyph glyph-name="Scaron" unicode="&#x160;" horiz-adv-x="457" 
d="M177 -12q-71 0 -125 36q-18 11 -25 11q-18 0 -23 -35h-19l35 167h18q-1 -8 -1 -24q0 -65 37.5 -95.5t103 -30.5t110 46.5t44.5 107t-62 90.5l-80 41q-94 46 -94 143q0 76 59 136.5t148 60.5q59 0 107 -33q16 -11 22 -11q10 0 17 21l5 17h18l-37 -173h-17q2 20 2 29
q0 62 -31.5 91.5t-90.5 29.5t-100.5 -44t-41.5 -99q0 -68 61 -100l103 -53q83 -43 83 -121.5t-68 -143t-158 -64.5zM258 842l70 -85l102 85l13 -16l-85 -112q-18 -22 -40.5 -22t-31.5 23l-44 118z" />
    <glyph glyph-name="scaron" unicode="&#x161;" horiz-adv-x="379" 
d="M166 398q-27 -22 -27 -56t28 -62t61 -46.5t61 -48.5t28 -64q0 -64 -49.5 -98.5t-119.5 -34.5t-123 33q17 34 32 118l17 -3q-7 -41 -7 -64.5t22.5 -43t65 -19.5t72 26t29.5 68q0 27 -26.5 52.5t-58 42.5t-58 48t-26.5 68q0 55 43.5 92.5t114.5 37.5q55 0 109 -27
q-5 -11 -16.5 -50t-17.5 -74l-17 3q6 32 6 61.5t-19.5 46t-58 16.5t-65.5 -22zM186 644l70 -85l102 85l13 -16l-85 -112q-18 -22 -40.5 -22t-31.5 23l-44 118z" />
    <glyph glyph-name="Ydieresis" unicode="&#x178;" horiz-adv-x="455" 
d="M247 190l-44 -5l-92 413q-3 14 -15 14h-35l3 18h165l-3 -18h-47l80 -355l211 355h-47l3 18h129l-3 -18h-35q-12 0 -21 -14zM201 242l64 -17q-41 -194 -41 -200.5t11 -6.5h66l-3 -18h-228l3 18h68q13 0 16 15zM231 774q0 19 13 32t32 13t32 -13t13 -32t-13 -32t-32 -13
t-32 13t-13 32zM391 774q0 19 13 32t32 13t32 -13t13 -32t-13 -32t-32 -13t-32 13t-13 32z" />
    <glyph glyph-name="Zcaron" unicode="&#x17d;" horiz-adv-x="546" 
d="M0 0l5 28l465 574h-251q-24 0 -31 -22l-39 -117h-22l10 47q18 82 18 129q31 -9 104 -9h307l-6 -28l-464 -574h270q25 0 32 22l39 117h22l-10 -47q-18 -82 -18 -129q-29 9 -104 9h-327zM301 842l70 -85l102 85l13 -16l-85 -112q-18 -22 -40.5 -22t-31.5 23l-44 118z" />
    <glyph glyph-name="zcaron" unicode="&#x17e;" horiz-adv-x="371" 
d="M350 438l16 -4q-8 -46 -29 -69l-254 -276q20 -1 71.5 -22t80.5 -21q58 0 72 80l19 -3q-14 -135 -83 -135q-42 0 -98.5 32t-79.5 32q-35 0 -54 -64l-15 5q17 54 38 78l256 279q-17 1 -63 19t-74 18q-58 0 -72 -76l-19 3q14 130 83 130q43 0 93.5 -28t64.5 -28q33 0 47 50z
M178 644l70 -85l102 85l13 -16l-85 -112q-18 -22 -40.5 -22t-31.5 23l-44 118z" />
    <glyph glyph-name="florin" unicode="&#x192;" horiz-adv-x="440" 
d="M232 390l-19 -112h127l-5 -31h-126l-55 -334q-11 -65 -47 -95.5t-122 -39.5v24q88 18 100 93l56 352h-86l5 31h86q57 301 196 301q49 0 74 -23t25 -57.5t-15 -63t-40 -28.5t-36 15q25 45 25 81q0 51 -37 51q-45 0 -69 -42.5t-37 -121.5z" />
    <glyph glyph-name="circumflex" unicode="&#x2c6;" horiz-adv-x="258" 
d="M215 489l-70 85l-102 -85l-13 16l85 112q18 22 40.5 22t31.5 -23l44 -118z" />
    <glyph glyph-name="caron" unicode="&#x2c7;" horiz-adv-x="258" 
d="M43 644l70 -85l102 85l13 -16l-85 -112q-18 -22 -40.5 -22t-31.5 23l-44 118z" />
    <glyph glyph-name="breve" unicode="&#x2d8;" horiz-adv-x="265" 
d="M76.5 601q16.5 -11 49 -11t54.5 14t27 36h28q-10 -47 -43.5 -77.5t-76 -30.5t-64 22t-21.5 58q0 13 3 28h28q-1 -3 -1 -9q0 -19 16.5 -30z" />
    <glyph glyph-name="dotaccent" unicode="&#x2d9;" horiz-adv-x="192" 
d="M43 553q0 22 15.5 37.5t37.5 15.5t37.5 -15.5t15.5 -37.5t-15.5 -37.5t-37.5 -15.5t-37.5 15.5t-15.5 37.5z" />
    <glyph glyph-name="ring" unicode="&#x2da;" horiz-adv-x="253" 
d="M59 509.5q-19 16.5 -19 52t30.5 67t67.5 31.5q75 0 75 -63q0 -47 -31 -75.5t-67.5 -28.5t-55.5 16.5zM99 611.5q-15 -29.5 -15 -64.5t28 -35q19 0 38.5 24t19.5 54q0 51 -28 51t-43 -29.5z" />
    <glyph glyph-name="ogonek" unicode="&#x2db;" horiz-adv-x="242" 
d="M199 -127l13 -11q-36 -48 -90 -48q-41 0 -66.5 22.5t-25.5 57t31.5 67.5t93.5 51l6 -12q-41 -14 -61.5 -40t-20.5 -55.5t15.5 -45.5t44 -16t60.5 30z" />
    <glyph glyph-name="tilde" unicode="&#x2dc;" horiz-adv-x="320" 
d="M272 634l18 -7q-22 -55 -43.5 -76t-40.5 -21t-51 11.5t-49.5 11.5t-29.5 -9t-29 -36l-17 7q37 96 87 96q14 0 46 -11.5t50 -11.5t30 9.5t29 36.5z" />
    <glyph glyph-name="hungarumlaut" unicode="&#x2dd;" horiz-adv-x="376" 
d="M174 566l-131 -77l-13 16l111 120q13 14 28.5 14t23.5 -9.5t8 -23.5q0 -25 -27 -40zM318 566l-131 -77l-13 16l111 120q13 14 28.5 14t23.5 -9.5t8 -23.5q0 -25 -27 -40z" />
    <glyph glyph-name="pi" unicode="&#x3c0;" 
d="M132 0l-70 -6l86 405h-67l7 33h425l-7 -33h-67q-69 -312 -69 -351q0 -17 10.5 -28t23.5 -11l-7 -21q-93 0 -93 75q0 20 7 55l59 281h-154z" />
    <glyph glyph-name="endash" unicode="&#x2013;" horiz-adv-x="368" 
d="M30 211l9 40h329l-9 -40h-329z" />
    <glyph glyph-name="emdash" unicode="&#x2014;" horiz-adv-x="609" 
d="M30 211l9 40h570l-9 -40h-570z" />
    <glyph glyph-name="quoteleft" unicode="&#x2018;" horiz-adv-x="78" 
d="M148 654q-65 -50 -65 -105q0 -30 21 -49q-5 -23 -23.5 -40t-39.5 -17q-41 0 -41 41t40.5 97.5t99.5 86.5z" />
    <glyph glyph-name="quoteright" unicode="&#x2019;" horiz-adv-x="208" 
d="M60 457q65 50 65 105q0 30 -21 49q5 23 23.5 40t39.5 17q41 0 41 -41t-40.5 -97.5t-99.5 -86.5z" />
    <glyph glyph-name="quotesinglbase" unicode="&#x201a;" horiz-adv-x="182" 
d="M5 -111q65 50 65 105q0 30 -21 49q5 23 23.5 40t39.5 17q41 0 41 -41t-40.5 -97.5t-99.5 -86.5z" />
    <glyph glyph-name="quotedblleft" unicode="&#x201c;" horiz-adv-x="223" 
d="M148 654q-65 -50 -65 -105q0 -30 21 -49q-5 -23 -23.5 -40t-39.5 -17q-41 0 -41 41t40.5 97.5t99.5 86.5zM293 654q-65 -50 -65 -105q0 -30 21 -49q-5 -23 -23.5 -40t-39.5 -17q-41 0 -41 41t40.5 97.5t99.5 86.5z" />
    <glyph glyph-name="quotedblright" unicode="&#x201d;" horiz-adv-x="353" 
d="M60 457q65 50 65 105q0 30 -21 49q5 23 23.5 40t39.5 17q41 0 41 -41t-40.5 -97.5t-99.5 -86.5zM205 457q65 50 65 105q0 30 -21 49q5 23 23.5 40t39.5 17q41 0 41 -41t-40.5 -97.5t-99.5 -86.5z" />
    <glyph glyph-name="quotedblbase" unicode="&#x201e;" horiz-adv-x="327" 
d="M5 -111q65 50 65 105q0 30 -21 49q5 23 23.5 40t39.5 17q41 0 41 -41t-40.5 -97.5t-99.5 -86.5zM150 -111q65 50 65 105q0 30 -21 49q5 23 23.5 40t39.5 17q41 0 41 -41t-40.5 -97.5t-99.5 -86.5z" />
    <glyph glyph-name="dagger" unicode="&#x2020;" horiz-adv-x="367" 
d="M220 499l-2 86q0 75 51 75q31 0 31 -30q0 -16 -27 -74t-39 -91q36 5 76.5 16.5t51.5 11.5q29 0 29 -26q0 -18 -12.5 -31t-26 -13t-99.5 24l-142 -554h-11l94 554q-13 -3 -40 -10q-53 -14 -66 -14q-28 0 -28 26q0 18 12 31t27 13t50.5 -11.5t69.5 -16.5z" />
    <glyph glyph-name="daggerdbl" unicode="&#x2021;" horiz-adv-x="367" 
d="M151 42l2 -86q0 -75 -51 -75q-31 0 -31 30q0 17 27 74.5t39 90.5q-36 -5 -76.5 -16.5t-51.5 -11.5q-29 0 -29 26q0 18 12.5 31t26 13t99.5 -24l61 176l15 177q-13 -3 -40 -10q-53 -14 -66 -14q-28 0 -28 26q0 18 12 31t27 13t50.5 -11.5t69.5 -16.5l1 34l-2 86
q0 75 51 75q31 0 31 -30q0 -16 -27 -74t-39 -91q36 5 76.5 16.5t51.5 11.5q29 0 29 -26q0 -18 -12.5 -31t-26 -13t-99.5 24l-62 -177l-14 -176q13 3 39 10q54 14 67 14q28 0 28 -26q0 -18 -12 -31t-27 -13t-50.5 11.5t-69.5 16.5q-1 -12 -1 -34z" />
    <glyph glyph-name="bullet" unicode="&#x2022;" horiz-adv-x="226" 
d="M40 283q0 30 21.5 51.5t51.5 21.5t51.5 -21.5t21.5 -51.5t-21.5 -51.5t-51.5 -21.5t-51.5 21.5t-21.5 51.5z" />
    <glyph glyph-name="ellipsis" unicode="&#x2026;" horiz-adv-x="576" 
d="M43 41q0 22 15.5 37.5t37.5 15.5t37.5 -15.5t15.5 -37.5t-15.5 -37.5t-37.5 -15.5t-37.5 15.5t-15.5 37.5zM235 41q0 22 15.5 37.5t37.5 15.5t37.5 -15.5t15.5 -37.5t-15.5 -37.5t-37.5 -15.5t-37.5 15.5t-15.5 37.5zM427 41q0 22 15.5 37.5t37.5 15.5t37.5 -15.5
t15.5 -37.5t-15.5 -37.5t-37.5 -15.5t-37.5 15.5t-15.5 37.5z" />
    <glyph glyph-name="perthousand" unicode="&#x2030;" horiz-adv-x="1120" 
d="M115.5 236.5q-25.5 31.5 -25.5 86t18 110.5t60.5 101t92.5 45t75.5 -31t25.5 -85t-18 -110.5t-60.5 -102t-92.5 -45.5t-75.5 31.5zM262 560q-42 0 -79 -85t-37 -167.5t45 -82.5q28 0 55.5 42t44 100t16.5 103q0 90 -45 90zM542.5 23.5q-25.5 31.5 -25.5 86t18 110.5
t60.5 101t92.5 45t75.5 -31t25.5 -85t-18 -110.5t-60.5 -102t-92.5 -45.5t-75.5 31.5zM689 347q-42 0 -79 -85t-37 -167.5t45 -82.5q28 0 55.5 42t44 100t16.5 103q0 90 -45 90zM853.5 23.5q-25.5 31.5 -25.5 86t18 110.5t60.5 101t92.5 45t75.5 -31t25.5 -85t-18 -110.5
t-60.5 -102t-92.5 -45.5t-75.5 31.5zM1000 347q-42 0 -79 -85t-37 -167.5t45 -82.5q28 0 55.5 42t44 100t16.5 103q0 90 -45 90zM330 -74h-31l249 722h32z" />
    <glyph glyph-name="guilsinglleft" unicode="&#x2039;" horiz-adv-x="234" 
d="M30 225l3 12l188 171l13 -14l-124 -163l55 -163l-19 -14z" />
    <glyph glyph-name="guilsinglright" unicode="&#x203a;" horiz-adv-x="234" 
d="M215 237l-3 -12l-188 -171l-12 14l124 163l-55 163l18 14z" />
    <glyph glyph-name="fraction" unicode="&#x2044;" horiz-adv-x="319" 
d="M50 -74h-31l249 722h32z" />
    <glyph glyph-name="Euro" unicode="&#x20ac;" horiz-adv-x="440" 
d="M336 276l-14 -30h-206q-10 -55 -10 -98q0 -132 95 -132q51 0 84 36.5t33 81.5q0 13 -1 19q24 15 49 15q22 0 22 -28q0 -59 -55 -105.5t-136.5 -46.5t-118.5 50.5t-37 132.5q0 39 7 75h-65l14 30h57l9 36h-48l14 30h45q37 101 106 169t153 68q58 0 86.5 -26t28.5 -64
t-13.5 -64t-38 -26t-39.5 15q28 40 28 79q0 58 -57 58t-107.5 -59.5t-80.5 -149.5h225l-15 -30h-219l-3 -12l-6 -24h214z" />
    <glyph glyph-name="trademark" unicode="&#x2122;" horiz-adv-x="671" 
d="M260 613l-59 -276q0 -10 11 -10h33l-3 -14h-142l3 14h33q14 0 17 14l58 272h-57q-13 0 -17 -14l-19 -59h-14l6 27q9 46 11 69q24 -6 64 -6h107q39 0 67 6q-8 -15 -19 -69l-6 -27h-13q6 60 6 62q0 11 -10 11h-57zM490 380l146 250h71l-3 -14h-16q-13 0 -16 -14
q-34 -166 -45 -214t-11 -51q0 -10 11 -10h16l-3 -14h-107l3 14h15q13 0 17 14l45 211l-139 -239h-25l-43 239l-46 -215q0 -10 11 -10h15l-3 -14h-77l3 14h15q14 0 17 14q55 262 55 264q0 11 -11 11h-15l3 14h70z" />
    <glyph glyph-name="Omega" unicode="&#x2126;" horiz-adv-x="710" 
d="M572.5 597.5q-44.5 50.5 -120.5 50.5t-141.5 -56t-98.5 -135t-33 -159q0 -115 68 -179l-24 -117h-198l3 18h118q14 0 17 14l21 83q-85 73 -85 188q0 94 47 178.5t131 137.5t188 53t168 -58.5t64 -166t-55.5 -193.5t-139.5 -139l-15 -83q2 -14 11 -14h118l-3 -18h-198
l24 117q72 48 125 139t53 190t-44.5 149.5z" />
    <glyph glyph-name="partialdiff" unicode="&#x2202;" horiz-adv-x="472" 
d="M240 712q101 -43 156.5 -140.5t55.5 -205t-30.5 -189t-95 -135.5t-152.5 -54q-67 0 -107 40.5t-40 110.5q0 120 85 207t185 87q55 0 89 -39l6 4q-17 211 -171 283zM193 16q70 0 125.5 89t55.5 181q0 54 -24 86t-72.5 32t-91.5 -48.5t-63.5 -110t-20.5 -114.5t24 -84
t67 -31z" />
    <glyph glyph-name="Delta" unicode="&#x2206;" horiz-adv-x="620" 
d="M385 700h57l89 -700h-529zM377 619l-302 -561h367z" />
    <glyph glyph-name="product" unicode="&#x220f;" horiz-adv-x="646" 
d="M613 667q-45 -213 -95.5 -448.5t-50.5 -249t8.5 -23.5t26.5 -10l-7 -21q-93 0 -93 75q0 20 7 55l132 622h-240l-157 -740h-71l157 740h-70l7 33h523l-7 -33h-70z" />
    <glyph glyph-name="summation" unicode="&#x2211;" horiz-adv-x="483" 
d="M-19 -22l296 340l-135 349l7 33h414l-7 -33h-337l137 -354l-279 -320h329l-14 -66h-371z" />
    <glyph glyph-name="minus" unicode="&#x2212;" 
d="M447 170h-373l11 53h373z" />
    <glyph glyph-name="radical" unicode="&#x221a;" horiz-adv-x="430" 
d="M151 -126h-68l-60 476h78l47 -395l331 745h175l-8 -37h-144z" />
    <glyph glyph-name="infinity" unicode="&#x221e;" horiz-adv-x="671" 
d="M536 438q62 0 93 -33t31 -84q0 -71 -52.5 -129t-136.5 -58q-51 0 -77.5 28.5t-43.5 80.5q-40 -51 -81 -80t-99 -29t-90 33t-32 84q0 70 53.5 128.5t137.5 58.5q50 0 76.5 -29t43.5 -81q84 110 177 110zM584 389.5q-19 22.5 -48 22.5t-49.5 -10t-42.5 -34q-36 -42 -70 -93
q25 -89 62 -108q17 -9 40 -9q49 0 88 50.5t39 118.5q0 40 -19 62.5zM126 182q19 -24 47.5 -24t48.5 10t42 34q30 34 70 94q-11 38 -20 59t-30 39t-51 18q-49 0 -87.5 -46.5t-38.5 -119.5q0 -40 19 -64z" />
    <glyph glyph-name="integral" unicode="&#x222b;" horiz-adv-x="387" 
d="M3 -126q-43 0 -61.5 22t-18.5 53q0 24 7 30.5t20 6.5t25.5 -5.5t13.5 -14.5q-4 -17 -4 -34q0 -33 32 -33q69 0 104 164l74 349q73 340 221 340q44 0 62.5 -22t18.5 -46.5t-4.5 -34t-20.5 -9.5q-41 0 -41 23q3 17 3 29q0 35 -33 35q-68 0 -103 -164l-74 -349
q-73 -340 -221 -340z" />
    <glyph glyph-name="approxequal" unicode="&#x2248;" 
d="M434 324l14 -35q-49 -46 -109 -46q-29 0 -83.5 12.5t-87.5 12.5t-69 -25l-14 35q48 44 107 44q29 0 83 -12.5t87.5 -12.5t71.5 27zM400 161l13 -35q-47 -46 -108 -46q-29 0 -83.5 12.5t-88 12.5t-68.5 -25l-15 35q48 44 107 44q29 0 83 -12.5t87.5 -12.5t72.5 27z" />
    <glyph glyph-name="notequal" unicode="&#x2260;" 
d="M437 255h-373l11 53h373zM401 85h-373l11 53h373zM127 -165h-31l249 722h32z" />
    <glyph glyph-name="lessequal" unicode="&#x2264;" 
d="M506 450l-351 -154l286 -153l-12 -55l-334 182l11 53l412 182zM395 -79h-373l11 53h373z" />
    <glyph glyph-name="greaterequal" unicode="&#x2265;" 
d="M68 143l350 153l-285 154l12 55l334 -182l-11 -53l-412 -182zM395 -79h-373l11 53h373z" />
    <glyph glyph-name="lozenge" unicode="&#x25ca;" horiz-adv-x="511" 
d="M220 -79h-58l-117 389l282 390h58l117 -390zM324 640l-236 -330l95 -329l241 329z" />
    <glyph glyph-name="ff" unicode="&#xfb00;" horiz-adv-x="530" 
d="M38 396l5 19h101q23 104 75 174.5t129 70.5q91 0 131 -49q46 49 98 49t77.5 -23t25.5 -54t-12.5 -56t-39.5 -25t-39 14q29 37 29 75q0 46 -43.5 46t-69.5 -43.5t-43 -122.5l-12 -56h99l-5 -19h-98l-78 -364q-29 -132 -71 -196t-102 -64q-38 0 -59 23t-21 51.5t11.5 51
t36.5 22.5t36 -13q-13 -10 -21.5 -30t-8.5 -39q0 -43 36 -43q40 0 61 62t58 249l57 290h-175l-78 -364q-55 -260 -173 -260q-38 0 -59 23t-21 51.5t11.5 51t36.5 22.5t36 -13q-13 -10 -21.5 -30t-8.5 -39q0 -43 36 -43q40 0 61.5 64t57.5 247l57 290h-103zM222 471l-12 -56
h174q18 76 55 145q-1 33 -25 55t-71 22t-75.5 -43t-45.5 -123z" />
    <glyph glyph-name="ffi" unicode="&#xfb03;" horiz-adv-x="750" 
d="M222 471l-12 -56h174q18 76 55 145q-1 33 -25 55t-71 22t-75.5 -43t-45.5 -123zM450 415h99q85 0 148 20l14 -10q-35 -104 -66 -223t-31 -152.5t25 -33.5q19 0 41 25.5t38 72.5l16 -4q-43 -122 -112 -122q-62 0 -62 75q0 51 73 333h-187l-78 -364q-29 -132 -71 -196
t-102 -64q-38 0 -59 23t-21 51.5t11.5 51t36.5 22.5t36 -13q-13 -10 -21.5 -30t-8.5 -39q0 -43 36 -43q40 0 61 62t58 249l57 290h-175l-78 -364q-55 -260 -173 -260q-38 0 -59 23t-21 51.5t11.5 51t36.5 22.5t36 -13q-13 -10 -21.5 -30t-8.5 -39q0 -43 36 -43q40 0 61.5 64
t57.5 247l57 290h-89l5 19h87q23 104 75 174.5t129 70.5q91 0 131 -49q46 49 116 49t102.5 -31.5t32.5 -73.5q0 -22 -11 -37.5t-34 -15.5t-35 14q16 28 16 56t-20 46.5t-57 18.5q-53 0 -81.5 -43t-45.5 -123z" />
    <glyph glyph-name="ffl" unicode="&#xfb04;" horiz-adv-x="776" 
d="M222 471l-12 -56h174q4 11 11 35.5l11 38.5q13 39 33 71q-1 33 -25 55t-71 22t-75.5 -43t-45.5 -123zM680 557q0 36 -21.5 58t-59.5 22q-102 0 -137 -166l-12 -56h99l-5 -19h-98l-78 -364q-55 -260 -173 -260q-38 0 -59 23t-21 51.5t11.5 51t36.5 22.5t36 -13
q-13 -10 -21.5 -30t-8.5 -39q0 -43 36 -43q40 0 61.5 64t57.5 247l57 290h-175l-78 -364q-55 -260 -173 -260q-38 0 -59 23t-21 51.5t11.5 51t36.5 22.5t36 -13q-13 -10 -21.5 -30t-8.5 -39q0 -43 36 -43q40 0 61.5 64t57.5 247l57 290h-89l5 19h87q23 104 75 174.5
t129 70.5q91 0 131 -49q51 49 119 49q86 0 122 -52l45 49l14 -10q-42 -123 -98.5 -333.5t-56.5 -264.5q0 -33 25 -33q19 0 41 25.5t38 72.5l16 -4q-43 -122 -112 -122q-62 0 -62 75q0 43 55 262.5t55 231.5z" />
    <glyph glyph-name="apple" horiz-adv-x="923" 
d="M589 -89l-23 1q-14 0 -31.5 -12t-26.5 -12l-46 10q-8 0 -23.5 -6t-24 -6t-24.5 12.5t-29 12.5l-24 -2q-15 0 -33 17l-18 19q-12 6 -25 7t-22 6.5t-16 23t-12.5 22t-19.5 10t-20 14.5q-5 9 -7 23.5t-6 21t-14 13.5q-22 18 -22 38l3 25q0 9 -12.5 26.5t-12.5 26.5t6 23.5
t6 23t-6 21.5t-6 22t12.5 29.5t12.5 29.5l-1 25q0 15 16.5 29.5t19 19.5t4.5 21t6 22t19.5 12t20.5 11t12 20.5t13.5 21t25.5 9.5t24.5 7t20.5 20t29 18l26 -2q13 0 28.5 11.5t26.5 11.5l44 -12l45 12q13 0 29 -12.5t28 -12.5l28 3q16 0 29 -16.5t19.5 -20t21.5 -6.5
t22.5 -8t12.5 -19t10.5 -19t25.5 -15.5t24.5 -18.5t5 -24t3 -20.5t19.5 -19t17 -30.5l-1 -25q0 -13 12 -31.5t12 -27.5t-5.5 -22t-5.5 -20t5.5 -21.5t5 -22.5t-12.5 -20.5t-12 -26.5l2 -32q0 -16 -16 -29t-18.5 -18t-7 -24t-10 -25.5t-18 -12t-17.5 -10.5t-14 -21.5
t-16 -21.5t-24.5 -9.5t-22.5 -7.5t-18.5 -16.5t-28.5 -13.5zM462 -6l33 -7q6 0 17 7q15 10 27 10l15 -1q12 0 21 10t12.5 12t16.5 5.5t18.5 7.5t12 15.5t10 15t12.5 7.5t13 8.5t7 18.5t5.5 18t13.5 13t11 23l-1 20q0 11 8.5 20.5t9.5 15.5l-8 32l8 28q0 8 -9 22t-9 23l1 17
q0 12 -12 22t-14 14t-2.5 15.5t-3.5 17t-17.5 13t-18.5 11.5t-8 14t-9 14t-16 6t-16 4.5t-14 14.5t-21 12l-20 -2q-9 0 -20 9t-21 9l-33 -9l-32 9q-8 0 -20 -8.5t-22 -8.5l-17 1q-11 0 -21.5 -12.5t-15 -15t-17.5 -5t-18 -6.5t-10 -15t-9 -15t-14.5 -8t-14.5 -9
q-2 -4 -4 -15.5t-4 -15.5t-14 -14.5t-12 -21.5l1 -16q0 -8 -8.5 -23t-8.5 -23l8 -30l-8 -33q0 -8 8.5 -20.5t8.5 -20.5l-2 -16q0 -11 12.5 -22.5t14.5 -15.5t3.5 -14.5t5.5 -17t14 -10.5t14 -7.5t9.5 -16.5t11.5 -17t15.5 -4t15.5 -3t17.5 -15.5t22.5 -12.5l15 1
q10 0 22 -8.5t18 -9.5zM462 417q70 0 120 -49.5t50 -120.5t-50 -120.5t-120 -49.5t-120 49.5t-50 120.5t50 120.5t120 49.5zM505 292h52v68h-191v-68h54v-175h85v175z" />
    </font>
</defs>
</svg>
